{
    "asset" : {
        "generator" : "Khronos glTF Blender I/O v1.2.75",
        "version" : "2.0"
    },
    "scene" : 0,
    "scenes" : [
        {
            "name" : "Scene",
            "nodes" : [
                0,
                1,
                2,
                3,
                4,
                5
            ]
        }
    ],
    "nodes" : [
        {
            "mesh" : 0,
            "name" : "B12H12",
            "rotation" : [
                0.7071067690849304,
                0,
                0,
                0.7071067690849304
            ],
            "scale" : [
                0.20000000298023224,
                0.20000000298023224,
                0.20000000298023224
            ],
            "translation" : [
                -0.0011675357818603516,
                0.9313566088676453,
                0.3611676096916199
            ]
        },
        {
            "name" : "Curve",
            "scale" : [
                30,
                30,
                30
            ],
            "translation" : [
                -1.0611674785614014,
                0.0588984489440918,
                1.061167597770691
            ]
        },
        {
            "name" : "Curve.001",
            "scale" : [
                30,
                30,
                30
            ],
            "translation" : [
                -1.0611674785614014,
                0.09889841079711914,
                1.061167597770691
            ]
        },
        {
            "name" : "Curve.002",
            "scale" : [
                30,
                30,
                30
            ],
            "translation" : [
                -1.0611674785614014,
                0.13889837265014648,
                1.061167597770691
            ]
        },
        {
            "name" : "Curve.003",
            "scale" : [
                30,
                30,
                30
            ],
            "translation" : [
                -1.0611674785614014,
                0.13889837265014648,
                1.061167597770691
            ]
        },
        {
            "name" : "Curve.004",
            "scale" : [
                30,
                30,
                30
            ],
            "translation" : [
                -1.0611674785614014,
                0.13889837265014648,
                1.061167597770691
            ]
        }
    ],
    "materials" : [
        {
            "doubleSided" : true,
            "name" : "kffb5b5",
            "pbrMetallicRoughness" : {}
        },
        {
            "doubleSided" : true,
            "emissiveFactor" : [
                0,
                0,
                0
            ],
            "name" : "kffffff",
            "pbrMetallicRoughness" : {
                "baseColorFactor" : [
                    1,
                    1,
                    1,
                    1
                ],
                "metallicFactor" : 0,
                "roughnessFactor" : 0.5744284987449646
            }
        }
    ],
    "meshes" : [
        {
            "name" : "B12H12",
            "primitives" : [
                {
                    "attributes" : {
                        "POSITION" : 0,
                        "NORMAL" : 1
                    },
                    "indices" : 2,
                    "material" : 0
                },
                {
                    "attributes" : {
                        "POSITION" : 3,
                        "NORMAL" : 4
                    },
                    "indices" : 5,
                    "material" : 1
                }
            ]
        }
    ],
    "accessors" : [
        {
            "bufferView" : 0,
            "componentType" : 5126,
            "count" : 13736,
            "max" : [
                2.0892019271850586,
                0.6066499948501587,
                1.994885802268982
            ],
            "min" : [
                -2.089873790740967,
                -3.991328477859497,
                -1.994139552116394
            ],
            "type" : "VEC3"
        },
        {
            "bufferView" : 1,
            "componentType" : 5126,
            "count" : 13736,
            "type" : "VEC3"
        },
        {
            "bufferView" : 2,
            "componentType" : 5123,
            "count" : 78489,
            "type" : "SCALAR"
        },
        {
            "bufferView" : 3,
            "componentType" : 5126,
            "count" : 4870,
            "max" : [
                2.8183724880218506,
                1.4329406023025513,
                2.6920082569122314
            ],
            "min" : [
                -2.818472385406494,
                -4.817842960357666,
                -2.691108226776123
            ],
            "type" : "VEC3"
        },
        {
            "bufferView" : 4,
            "componentType" : 5126,
            "count" : 4870,
            "type" : "VEC3"
        },
        {
            "bufferView" : 5,
            "componentType" : 5123,
            "count" : 28104,
            "type" : "SCALAR"
        }
    ],
    "bufferViews" : [
        {
            "buffer" : 0,
            "byteLength" : 164832,
            "byteOffset" : 0
        },
        {
            "buffer" : 0,
            "byteLength" : 164832,
            "byteOffset" : 164832
        },
        {
            "buffer" : 0,
            "byteLength" : 156978,
            "byteOffset" : 329664
        },
        {
            "buffer" : 0,
            "byteLength" : 58440,
            "byteOffset" : 486644
        },
        {
            "buffer" : 0,
            "byteLength" : 58440,
            "byteOffset" : 545084
        },
        {
            "buffer" : 0,
            "byteLength" : 56208,
            "byteOffset" : 603524
        }
    ],
    "buffers" : [
        {
            "byteLength" : 659732,
            "uri" : "data:application/octet-stream;base64,"
        }
    ]
}
