{"accessors" : [{"bufferView" : 0, "byteOffset" : 0, "componentType" : 5123, "count" : 78489, "type" : "SCALAR", "max" : [64002], "min" : [0]}, {"bufferView" : 1, "byteOffset" : 0, "componentType" : 5126, "count" : 64003, "type" : "VEC3", "max" : [0.4166730046272278, 1.330185055732727, 0.4824979901313782], "min" : [-0.4191420078277588, 0.5323789715766907, -0.4370979964733124], "name" : "POSITION"}, {"bufferView" : 1, "byteOffset" : 12, "componentType" : 5126, "count" : 64003, "type" : "VEC3", "max" : [0.9999998211860657, 0.9992008209228516, 0.9989169239997864], "min" : [-0.9998146891593933, -0.9995633363723755, -0.9988988041877747], "name" : "NORMAL"}, {"bufferView" : 0, "byteOffset" : 156980, "componentType" : 5123, "count" : 28104, "type" : "SCALAR", "max" : [23050], "min" : [0]}, {"bufferView" : 2, "byteOffset" : 0, "componentType" : 5126, "count" : 23051, "type" : "VEC3", "max" : [0.5625069737434387, 1.4695780277252197, 0.6477559804916382], "min" : [-0.5648620128631592, 0.3929550051689148, -0.6024010181427002], "name" : "POSITION"}, {"bufferView" : 2, "byteOffset" : 12, "componentType" : 5126, "count" : 23051, "type" : "VEC3", "max" : [0.9999856352806091, 0.9984046220779419, 0.9987162947654724], "min" : [-0.9999977350234985, -0.999998152256012, -0.9985016584396362], "name" : "NORMAL"}, {"bufferView" : 0, "byteOffset" : 213188, "componentType" : 5123, "count" : 138, "type" : "SCALAR", "max" : [114], "min" : [0]}, {"bufferView" : 3, "byteOffset" : 0, "componentType" : 5126, "count" : 115, "type" : "VEC3", "max" : [1.0555419921875, 0.05889799818396568, 1.0611679553985596], "min" : [-1.0611670017242432, 0.05889799818396568, -1.0550949573516846], "name" : "POSITION"}, {"bufferView" : 3, "byteOffset" : 12, "componentType" : 5126, "count" : 115, "type" : "VEC3", "max" : [0, 1.0000044107437134, 0], "min" : [0, 1.0000044107437134, 0], "name" : "NORMAL"}, {"bufferView" : 3, "byteOffset" : 24, "componentType" : 5126, "count" : 115, "type" : "VEC2", "max" : [1, 1], "min" : [0, 1], "name" : "TEXCOORD_0"}, {"bufferView" : 0, "byteOffset" : 213464, "componentType" : 5123, "count" : 219, "type" : "SCALAR", "max" : [192], "min" : [0]}, {"bufferView" : 4, "byteOffset" : 0, "componentType" : 5126, "count" : 193, "type" : "VEC3", "max" : [0.43459299206733704, 0.09889800101518631, 0.6711829900741577], "min" : [-0.4396339952945709, 0.09889800101518631, -0.45566800236701965], "name" : "POSITION"}, {"bufferView" : 4, "byteOffset" : 12, "componentType" : 5126, "count" : 193, "type" : "VEC3", "max" : [0, 1.0000044107437134, 1.0000044107437134], "min" : [0, -1.0000044107437134, -0.8000035285949707], "name" : "NORMAL"}, {"bufferView" : 4, "byteOffset" : 24, "componentType" : 5126, "count" : 193, "type" : "VEC2", "max" : [1, 1], "min" : [0, 1], "name" : "TEXCOORD_0"}, {"bufferView" : 0, "byteOffset" : 213904, "componentType" : 5123, "count" : 411, "type" : "SCALAR", "max" : [357], "min" : [0]}, {"bufferView" : 5, "byteOffset" : 0, "componentType" : 5126, "count" : 358, "type" : "VEC3", "max" : [0.43459299206733704, 0.13889800012111664, 0.6711829900741577], "min" : [-0.4396339952945709, 0.13889800012111664, -0.45566800236701965], "name" : "POSITION"}, {"bufferView" : 5, "byteOffset" : 12, "componentType" : 5126, "count" : 358, "type" : "VEC3", "max" : [0, 1.0000044107437134, 1.0000044107437134], "min" : [0, -0.8506820797920227, -0.1904020458459854], "name" : "NORMAL"}, {"bufferView" : 5, "byteOffset" : 24, "componentType" : 5126, "count" : 358, "type" : "VEC2", "max" : [1, 1], "min" : [0, 1], "name" : "TEXCOORD_0"}, {"bufferView" : 0, "byteOffset" : 214728, "componentType" : 5123, "count" : 1404, "type" : "SCALAR", "max" : [1186], "min" : [0]}, {"bufferView" : 6, "byteOffset" : 0, "componentType" : 5126, "count" : 1187, "type" : "VEC3", "max" : [0.29770100116729736, 0.13889800012111664, 0.16933999955654144], "min" : [-0.3029029965400696, 0.13889800012111664, -0.10589200258255005], "name" : "POSITION"}, {"bufferView" : 6, "byteOffset" : 12, "componentType" : 5126, "count" : 1187, "type" : "VEC3", "max" : [0, 1.0000044107437134, 0.00010000044130720198], "min" : [0, 1.0000044107437134, -0.00010000044130720198], "name" : "NORMAL"}, {"bufferView" : 6, "byteOffset" : 24, "componentType" : 5126, "count" : 1187, "type" : "VEC2", "max" : [1, 1], "min" : [0, 1], "name" : "TEXCOORD_0"}, {"bufferView" : 0, "byteOffset" : 217536, "componentType" : 5123, "count" : 4254, "type" : "SCALAR", "max" : [3703], "min" : [0]}, {"bufferView" : 7, "byteOffset" : 0, "componentType" : 5126, "count" : 3704, "type" : "VEC3", "max" : [0.4606280028820038, 0.13889800012111664, -0.504351019859314], "min" : [-0.46624499559402466, 0.13889800012111664, -0.667218029499054], "name" : "POSITION"}, {"bufferView" : 7, "byteOffset" : 12, "componentType" : 5126, "count" : 3704, "type" : "VEC3", "max" : [0, 1.0000044107437134, 1.0000044107437134], "min" : [0, -1.0000044107437134, -0.24251316487789154], "name" : "NORMAL"}, {"bufferView" : 7, "byteOffset" : 24, "componentType" : 5126, "count" : 3704, "type" : "VEC2", "max" : [1, 1], "min" : [0, 1], "name" : "TEXCOORD_0"}], "asset" : {"generator" : "Aspose.3D 21.11", "version" : "2.0"}, "buffers" : [{"uri" : "data:application/octet-stream;base64,", "byteLength" : 2989940}], "bufferViews" : [{"buffer" : 0, "byteOffset" : 0, "byteLength" : 226044, "target" : 34963}, {"buffer" : 0, "byteOffset" : 226048, "byteLength" : 1883736, "byteStride" : 24, "target" : 34962}, {"buffer" : 0, "byteOffset" : 2109788, "byteLength" : 674496, "byteStride" : 24, "target" : 34962}, {"buffer" : 0, "byteOffset" : 2784288, "byteLength" : 4416, "byteStride" : 32, "target" : 34962}, {"buffer" : 0, "byteOffset" : 2788708, "byteLength" : 7008, "byteStride" : 32, "target" : 34962}, {"buffer" : 0, "byteOffset" : 2795720, "byteLength" : 13152, "byteStride" : 32, "target" : 34962}, {"buffer" : 0, "byteOffset" : 2808876, "byteLength" : 44928, "byteStride" : 32, "target" : 34962}, {"buffer" : 0, "byteOffset" : 2853808, "byteLength" : 136128, "byteStride" : 32, "target" : 34962}], "materials" : [{"name" : "kffb5b5", "pbrMetallicRoughness" : {"baseColorFactor" : [1, 0.488685, 0.039015, 1], "metallicFactor" : 0, "roughnessFactor" : 0.837000008}, "emissiveFactor" : [0, 0, 0], "alphaMode" : "OPAQUE", "doubleSided" : false}, {"name" : "kffffff", "pbrMetallicRoughness" : {"baseColorFactor" : [1, 1, 1, 1], "metallicFactor" : 0, "roughnessFactor" : 0.837000008}, "emissiveFactor" : [0, 0, 0], "alphaMode" : "OPAQUE", "doubleSided" : false}, {"name" : "SVGMat.007", "pbrMetallicRoughness" : {"baseColorFactor" : [0.679542, 0.033105, 0.028426, 1], "metallicFactor" : 0, "roughnessFactor" : 0.676000006}, "emissiveFactor" : [0, 0, 0], "alphaMode" : "OPAQUE", "doubleSided" : false}, {"name" : "SVGMat.008", "pbrMetallicRoughness" : {"baseColorFactor" : [0.64448, 0.039546, 0.035601, 1], "metallicFactor" : 0, "roughnessFactor" : 0.676000006}, "emissiveFactor" : [0, 0, 0], "alphaMode" : "OPAQUE", "doubleSided" : false}, {"name" : "SVGMat.009", "pbrMetallicRoughness" : {"baseColorFactor" : [0.991102, 0.991102, 0.991102, 1], "metallicFactor" : 0, "roughnessFactor" : 0.676000006}, "emissiveFactor" : [0, 0, 0], "alphaMode" : "OPAQUE", "doubleSided" : false}, {"name" : "SVGMat.010", "pbrMetallicRoughness" : {"baseColorFactor" : [0.991102, 0.991102, 0.991102, 1], "metallicFactor" : 0, "roughnessFactor" : 0.676000006}, "emissiveFactor" : [0, 0, 0], "alphaMode" : "OPAQUE", "doubleSided" : false}, {"name" : "SVGMat.011", "pbrMetallicRoughness" : {"baseColorFactor" : [0.991102, 0.991102, 0.991102, 1], "metallicFactor" : 0, "roughnessFactor" : 0.676000006}, "emissiveFactor" : [0, 0, 0], "alphaMode" : "OPAQUE", "doubleSided" : false}], "meshes" : [{"primitives" : [{"attributes" : {"POSITION" : 1, "NORMAL" : 2}, "indices" : 0, "material" : 0, "mode" : 4}, {"attributes" : {"POSITION" : 4, "NORMAL" : 5}, "indices" : 3, "material" : 1, "mode" : 4}]}, {"primitives" : [{"attributes" : {"POSITION" : 7, "NORMAL" : 8, "TEXCOORD_0" : 9}, "indices" : 6, "material" : 2, "mode" : 4}]}, {"primitives" : [{"attributes" : {"POSITION" : 11, "NORMAL" : 12, "TEXCOORD_0" : 13}, "indices" : 10, "material" : 3, "mode" : 4}]}, {"primitives" : [{"attributes" : {"POSITION" : 15, "NORMAL" : 16, "TEXCOORD_0" : 17}, "indices" : 14, "material" : 4, "mode" : 4}]}, {"primitives" : [{"attributes" : {"POSITION" : 19, "NORMAL" : 20, "TEXCOORD_0" : 21}, "indices" : 18, "material" : 5, "mode" : 4}]}, {"primitives" : [{"attributes" : {"POSITION" : 23, "NORMAL" : 24, "TEXCOORD_0" : 25}, "indices" : 22, "material" : 6, "mode" : 4}]}], "nodes" : [{"mesh" : 0, "name" : "B12H12"}, {"mesh" : 1, "name" : "Curve_Curve.005"}, {"mesh" : 2, "name" : "Curve.001_Curve.006"}, {"mesh" : 3, "name" : "Curve.002_Curve.007"}, {"mesh" : 4, "name" : "Curve.003_Curve.008"}, {"mesh" : 5, "name" : "Curve.004_Curve.009"}], "scene" : 0, "scenes" : [{"nodes" : [0, 1, 2, 3, 4, 5]}]}