{
    "asset" : {
        "generator" : "Khronos glTF Blender I/O v1.2.75",
        "version" : "2.0"
    },
    "scene" : 0,
    "scenes" : [
        {
            "name" : "Scene",
            "nodes" : [
                0,
                1,
                2
            ]
        }
    ],
    "nodes" : [
        {
            "name" : "Light",
            "rotation" : [
                0.16907575726509094,
                0.7558803558349609,
                -0.27217137813568115,
                0.570947527885437
            ],
            "translation" : [
                4.076245307922363,
                5.903861999511719,
                -1.0054539442062378
            ]
        },
        {
            "name" : "Camera",
            "rotation" : [
                0.483536034822464,
                0.33687159419059753,
                -0.20870360732078552,
                0.7804827094078064
            ],
            "translation" : [
                7.358891487121582,
                4.958309173583984,
                6.925790786743164
            ]
        },
        {
            "mesh" : 0,
            "name" : "CpRh4V6O19",
            "rotation" : [
                0.7071068286895752,
                0,
                0,
                0.7071067094802856
            ],
            "scale" : [
                0.20000000298023224,
                0.20000000298023224,
                0.20000000298023224
            ]
        }
    ],
    "materials" : [
        {
            "doubleSided" : true,
            "emissiveFactor" : [
                0,
                0,
                0
            ],
            "name" : "k4b0082",
            "pbrMetallicRoughness" : {
                "baseColorFactor" : [
                    0.296999990940094,
                    0,
                    0.5120000243186951,
                    1
                ],
                "metallicFactor" : 0,
                "roughnessFactor" : 0.5744284987449646
            }
        },
        {
            "doubleSided" : true,
            "emissiveFactor" : [
                0,
                0,
                0
            ],
            "name" : "ka6a6ab",
            "pbrMetallicRoughness" : {
                "baseColorFactor" : [
                    0.6520000100135803,
                    0.6520000100135803,
                    0.671999990940094,
                    1
                ],
                "metallicFactor" : 0,
                "roughnessFactor" : 0.5744284987449646
            }
        },
        {
            "doubleSided" : true,
            "emissiveFactor" : [
                0,
                0,
                0
            ],
            "name" : "kff0d0d",
            "pbrMetallicRoughness" : {
                "baseColorFactor" : [
                    1,
                    0.054999999701976776,
                    0.054999999701976776,
                    1
                ],
                "metallicFactor" : 0,
                "roughnessFactor" : 0.5744284987449646
            }
        },
        {
            "doubleSided" : true,
            "emissiveFactor" : [
                0,
                0,
                0
            ],
            "name" : "k909090",
            "pbrMetallicRoughness" : {
                "baseColorFactor" : [
                    0.5659999847412109,
                    0.5659999847412109,
                    0.5659999847412109,
                    1
                ],
                "metallicFactor" : 0,
                "roughnessFactor" : 0.5744284987449646
            }
        },
        {
            "doubleSided" : true,
            "emissiveFactor" : [
                0,
                0,
                0
            ],
            "name" : "kffffff",
            "pbrMetallicRoughness" : {
                "baseColorFactor" : [
                    1,
                    1,
                    1,
                    1
                ],
                "metallicFactor" : 0,
                "roughnessFactor" : 0.5744284987449646
            }
        }
    ],
    "meshes" : [
        {
            "name" : "CpRh4V6O19",
            "primitives" : [
                {
                    "attributes" : {
                        "POSITION" : 0,
                        "NORMAL" : 1,
                        "COLOR_0" : 2
                    },
                    "indices" : 3,
                    "material" : 0
                },
                {
                    "attributes" : {
                        "POSITION" : 4,
                        "NORMAL" : 5,
                        "COLOR_0" : 6
                    },
                    "indices" : 7,
                    "material" : 1
                },
                {
                    "attributes" : {
                        "POSITION" : 8,
                        "NORMAL" : 9,
                        "COLOR_0" : 10
                    },
                    "indices" : 11,
                    "material" : 2
                },
                {
                    "attributes" : {
                        "POSITION" : 12,
                        "NORMAL" : 13,
                        "COLOR_0" : 14
                    },
                    "indices" : 15,
                    "material" : 3
                },
                {
                    "attributes" : {
                        "POSITION" : 16,
                        "NORMAL" : 17,
                        "COLOR_0" : 18
                    },
                    "indices" : 19,
                    "material" : 4
                }
            ]
        }
    ],
    "accessors" : [
        {
            "bufferView" : 0,
            "componentType" : 5126,
            "count" : 3183,
            "max" : [
                3.1696789264678955,
                3.107421875,
                3.1696887016296387
            ],
            "min" : [
                -3.1696789264678955,
                -3.1098008155822754,
                -3.1696887016296387
            ],
            "type" : "VEC3"
        },
        {
            "bufferView" : 1,
            "componentType" : 5126,
            "count" : 3183,
            "type" : "VEC3"
        },
        {
            "bufferView" : 2,
            "componentType" : 5126,
            "count" : 3183,
            "type" : "VEC4"
        },
        {
            "bufferView" : 3,
            "componentType" : 5123,
            "count" : 16470,
            "type" : "SCALAR"
        },
        {
            "bufferView" : 4,
            "componentType" : 5126,
            "count" : 3677,
            "max" : [
                3.0364389419555664,
                3.0332999229431152,
                3.0363688468933105
            ],
            "min" : [
                -3.0364389419555664,
                -3.0332999229431152,
                -3.0363688468933105
            ],
            "type" : "VEC3"
        },
        {
            "bufferView" : 5,
            "componentType" : 5126,
            "count" : 3677,
            "type" : "VEC3"
        },
        {
            "bufferView" : 6,
            "componentType" : 5126,
            "count" : 3677,
            "type" : "VEC4"
        },
        {
            "bufferView" : 7,
            "componentType" : 5123,
            "count" : 19206,
            "type" : "SCALAR"
        },
        {
            "bufferView" : 8,
            "componentType" : 5126,
            "count" : 5316,
            "max" : [
                4.128718852996826,
                4.126474857330322,
                4.126840591430664
            ],
            "min" : [
                -4.128680229187012,
                -4.126474857330322,
                -4.12718391418457
            ],
            "type" : "VEC3"
        },
        {
            "bufferView" : 9,
            "componentType" : 5126,
            "count" : 5316,
            "type" : "VEC3"
        },
        {
            "bufferView" : 10,
            "componentType" : 5126,
            "count" : 5316,
            "type" : "VEC4"
        },
        {
            "bufferView" : 11,
            "componentType" : 5123,
            "count" : 28854,
            "type" : "SCALAR"
        },
        {
            "bufferView" : 12,
            "componentType" : 5126,
            "count" : 14325,
            "max" : [
                5.827365875244141,
                5.7631425857543945,
                5.827365398406982
            ],
            "min" : [
                -5.827365875244141,
                -5.761351585388184,
                -5.827365398406982
            ],
            "type" : "VEC3"
        },
        {
            "bufferView" : 13,
            "componentType" : 5126,
            "count" : 14325,
            "type" : "VEC3"
        },
        {
            "bufferView" : 14,
            "componentType" : 5126,
            "count" : 14325,
            "type" : "VEC4"
        },
        {
            "bufferView" : 15,
            "componentType" : 5123,
            "count" : 77940,
            "type" : "SCALAR"
        },
        {
            "bufferView" : 16,
            "componentType" : 5126,
            "count" : 9419,
            "max" : [
                6.458206653594971,
                6.382241725921631,
                6.455956935882568
            ],
            "min" : [
                -6.4584455490112305,
                -6.38239049911499,
                -6.454782009124756
            ],
            "type" : "VEC3"
        },
        {
            "bufferView" : 17,
            "componentType" : 5126,
            "count" : 9419,
            "type" : "VEC3"
        },
        {
            "bufferView" : 18,
            "componentType" : 5126,
            "count" : 9419,
            "type" : "VEC4"
        },
        {
            "bufferView" : 19,
            "componentType" : 5123,
            "count" : 52212,
            "type" : "SCALAR"
        }
    ],
    "bufferViews" : [
        {
            "buffer" : 0,
            "byteLength" : 38196,
            "byteOffset" : 0
        },
        {
            "buffer" : 0,
            "byteLength" : 38196,
            "byteOffset" : 38196
        },
        {
            "buffer" : 0,
            "byteLength" : 50928,
            "byteOffset" : 76392
        },
        {
            "buffer" : 0,
            "byteLength" : 32940,
            "byteOffset" : 127320
        },
        {
            "buffer" : 0,
            "byteLength" : 44124,
            "byteOffset" : 160260
        },
        {
            "buffer" : 0,
            "byteLength" : 44124,
            "byteOffset" : 204384
        },
        {
            "buffer" : 0,
            "byteLength" : 58832,
            "byteOffset" : 248508
        },
        {
            "buffer" : 0,
            "byteLength" : 38412,
            "byteOffset" : 307340
        },
        {
            "buffer" : 0,
            "byteLength" : 63792,
            "byteOffset" : 345752
        },
        {
            "buffer" : 0,
            "byteLength" : 63792,
            "byteOffset" : 409544
        },
        {
            "buffer" : 0,
            "byteLength" : 85056,
            "byteOffset" : 473336
        },
        {
            "buffer" : 0,
            "byteLength" : 57708,
            "byteOffset" : 558392
        },
        {
            "buffer" : 0,
            "byteLength" : 171900,
            "byteOffset" : 616100
        },
        {
            "buffer" : 0,
            "byteLength" : 171900,
            "byteOffset" : 788000
        },
        {
            "buffer" : 0,
            "byteLength" : 229200,
            "byteOffset" : 959900
        },
        {
            "buffer" : 0,
            "byteLength" : 155880,
            "byteOffset" : 1189100
        },
        {
            "buffer" : 0,
            "byteLength" : 113028,
            "byteOffset" : 1344980
        },
        {
            "buffer" : 0,
            "byteLength" : 113028,
            "byteOffset" : 1458008
        },
        {
            "buffer" : 0,
            "byteLength" : 150704,
            "byteOffset" : 1571036
        },
        {
            "buffer" : 0,
            "byteLength" : 104424,
            "byteOffset" : 1721740
        }
    ],
    "buffers" : [
        {
            "byteLength" : 1826164,
            "uri" : "data:application/octet-stream;base64,"
        }
    ]
}
