{
    "asset" : {
        "generator" : "Khronos glTF Blender I/O v1.2.75",
        "version" : "2.0"
    },
    "scene" : 0,
    "scenes" : [
        {
            "name" : "Scene",
            "nodes" : [
                0,
                1,
                2
            ]
        }
    ],
    "nodes" : [
        {
            "name" : "Light",
            "rotation" : [
                0.16907575726509094,
                0.7558803558349609,
                -0.27217137813568115,
                0.570947527885437
            ],
            "translation" : [
                4.076245307922363,
                5.903861999511719,
                -1.0054539442062378
            ]
        },
        {
            "name" : "Camera",
            "rotation" : [
                0.483536034822464,
                0.33687159419059753,
                -0.20870360732078552,
                0.7804827094078064
            ],
            "translation" : [
                7.358891487121582,
                4.958309173583984,
                6.925790786743164
            ]
        },
        {
            "mesh" : 0,
            "name" : "01_Cu4I4py4.007",
            "rotation" : [
                0.7071068286895752,
                0,
                0,
                0.7071067094802856
            ],
            "scale" : [
                0.25,
                0.25,
                0.25
            ],
            "translation" : [
                0,
                2,
                0
            ]
        }
    ],
    "materials" : [
        {
            "doubleSided" : true,
            "emissiveFactor" : [
                0,
                0,
                0
            ],
            "name" : "k940094.007",
            "pbrMetallicRoughness" : {
                "baseColorFactor" : [
                    0.5820000171661377,
                    0,
                    0.5820000171661377,
                    1
                ],
                "metallicFactor" : 0,
                "roughnessFactor" : 0.5744284987449646
            }
        },
        {
            "doubleSided" : true,
            "emissiveFactor" : [
                0,
                0,
                0
            ],
            "name" : "kc88033.006",
            "pbrMetallicRoughness" : {
                "baseColorFactor" : [
                    0.9785000085830688,
                    0.35040000081062317,
                    0.2029999941587448,
                    1
                ],
                "metallicFactor" : 0,
                "roughnessFactor" : 0.5744284987449646
            }
        },
        {
            "doubleSided" : true,
            "emissiveFactor" : [
                0,
                0,
                0
            ],
            "name" : "k3050f8.007",
            "pbrMetallicRoughness" : {
                "baseColorFactor" : [
                    0.19099999964237213,
                    0.3160000145435333,
                    0.9729999899864197,
                    1
                ],
                "metallicFactor" : 0,
                "roughnessFactor" : 0.5744284987449646
            }
        },
        {
            "doubleSided" : true,
            "emissiveFactor" : [
                0,
                0,
                0
            ],
            "name" : "k909090.007",
            "pbrMetallicRoughness" : {
                "baseColorFactor" : [
                    0.30000001192092896,
                    0.30000001192092896,
                    0.30000001192092896,
                    1
                ],
                "metallicFactor" : 0,
                "roughnessFactor" : 0.5744284987449646
            }
        },
        {
            "doubleSided" : true,
            "emissiveFactor" : [
                0,
                0,
                0
            ],
            "name" : "kffffff.007",
            "pbrMetallicRoughness" : {
                "baseColorFactor" : [
                    1,
                    1,
                    1,
                    1
                ],
                "metallicFactor" : 0,
                "roughnessFactor" : 0.5744284987449646
            }
        }
    ],
    "meshes" : [
        {
            "name" : "01_Cu4I4py4.007",
            "primitives" : [
                {
                    "attributes" : {
                        "POSITION" : 0,
                        "NORMAL" : 1
                    },
                    "indices" : 2,
                    "material" : 0
                },
                {
                    "attributes" : {
                        "POSITION" : 3,
                        "NORMAL" : 4
                    },
                    "indices" : 5,
                    "material" : 1
                },
                {
                    "attributes" : {
                        "POSITION" : 6,
                        "NORMAL" : 7
                    },
                    "indices" : 8,
                    "material" : 2
                },
                {
                    "attributes" : {
                        "POSITION" : 9,
                        "NORMAL" : 10
                    },
                    "indices" : 11,
                    "material" : 3
                },
                {
                    "attributes" : {
                        "POSITION" : 12,
                        "NORMAL" : 13
                    },
                    "indices" : 14,
                    "material" : 4
                }
            ]
        }
    ],
    "accessors" : [
        {
            "bufferView" : 0,
            "componentType" : 5126,
            "count" : 2456,
            "max" : [
                2.1404128074645996,
                2.074572801589966,
                2.1407179832458496
            ],
            "min" : [
                -2.1404128074645996,
                -2.074572801589966,
                -2.1407179832458496
            ],
            "type" : "VEC3"
        },
        {
            "bufferView" : 1,
            "componentType" : 5126,
            "count" : 2456,
            "type" : "VEC3"
        },
        {
            "bufferView" : 2,
            "componentType" : 5123,
            "count" : 13860,
            "type" : "SCALAR"
        },
        {
            "bufferView" : 3,
            "componentType" : 5126,
            "count" : 3973,
            "max" : [
                1.5354387760162354,
                1.5731420516967773,
                1.537438988685608
            ],
            "min" : [
                -1.5354387760162354,
                -1.5731420516967773,
                -1.537438988685608
            ],
            "type" : "VEC3"
        },
        {
            "bufferView" : 4,
            "componentType" : 5126,
            "count" : 3973,
            "type" : "VEC3"
        },
        {
            "bufferView" : 5,
            "componentType" : 5123,
            "count" : 22185,
            "type" : "SCALAR"
        },
        {
            "bufferView" : 6,
            "componentType" : 5126,
            "count" : 2824,
            "max" : [
                2.7490811347961426,
                2.4693007469177246,
                2.779998302459717
            ],
            "min" : [
                -2.7061285972595215,
                -2.4693007469177246,
                -2.7190043926239014
            ],
            "type" : "VEC3"
        },
        {
            "bufferView" : 7,
            "componentType" : 5126,
            "count" : 2824,
            "type" : "VEC3"
        },
        {
            "bufferView" : 8,
            "componentType" : 5123,
            "count" : 15792,
            "type" : "SCALAR"
        },
        {
            "bufferView" : 9,
            "componentType" : 5126,
            "count" : 13732,
            "max" : [
                4.70894193649292,
                3.919590711593628,
                4.70894193649292
            ],
            "min" : [
                -4.70894193649292,
                -3.919590711593628,
                -4.70894193649292
            ],
            "type" : "VEC3"
        },
        {
            "bufferView" : 10,
            "componentType" : 5126,
            "count" : 13732,
            "type" : "VEC3"
        },
        {
            "bufferView" : 11,
            "componentType" : 5123,
            "count" : 77964,
            "type" : "SCALAR"
        },
        {
            "bufferView" : 12,
            "componentType" : 5126,
            "count" : 6167,
            "max" : [
                5.4560651779174805,
                4.321450710296631,
                5.454559326171875
            ],
            "min" : [
                -5.455240249633789,
                -4.321450710296631,
                -5.454559326171875
            ],
            "type" : "VEC3"
        },
        {
            "bufferView" : 13,
            "componentType" : 5126,
            "count" : 6167,
            "type" : "VEC3"
        },
        {
            "bufferView" : 14,
            "componentType" : 5123,
            "count" : 35382,
            "type" : "SCALAR"
        }
    ],
    "bufferViews" : [
        {
            "buffer" : 0,
            "byteLength" : 29472,
            "byteOffset" : 0
        },
        {
            "buffer" : 0,
            "byteLength" : 29472,
            "byteOffset" : 29472
        },
        {
            "buffer" : 0,
            "byteLength" : 27720,
            "byteOffset" : 58944
        },
        {
            "buffer" : 0,
            "byteLength" : 47676,
            "byteOffset" : 86664
        },
        {
            "buffer" : 0,
            "byteLength" : 47676,
            "byteOffset" : 134340
        },
        {
            "buffer" : 0,
            "byteLength" : 44370,
            "byteOffset" : 182016
        },
        {
            "buffer" : 0,
            "byteLength" : 33888,
            "byteOffset" : 226388
        },
        {
            "buffer" : 0,
            "byteLength" : 33888,
            "byteOffset" : 260276
        },
        {
            "buffer" : 0,
            "byteLength" : 31584,
            "byteOffset" : 294164
        },
        {
            "buffer" : 0,
            "byteLength" : 164784,
            "byteOffset" : 325748
        },
        {
            "buffer" : 0,
            "byteLength" : 164784,
            "byteOffset" : 490532
        },
        {
            "buffer" : 0,
            "byteLength" : 155928,
            "byteOffset" : 655316
        },
        {
            "buffer" : 0,
            "byteLength" : 74004,
            "byteOffset" : 811244
        },
        {
            "buffer" : 0,
            "byteLength" : 74004,
            "byteOffset" : 885248
        },
        {
            "buffer" : 0,
            "byteLength" : 70764,
            "byteOffset" : 959252
        }
    ],
    "buffers" : [
        {
            "byteLength" : 1030016,
            "uri" : "data:application/octet-stream;base64,"
        }
    ]
}
