{
    "asset" : {
        "generator" : "Khronos glTF Blender I/O v1.2.75",
        "version" : "2.0"
    },
    "scene" : 0,
    "scenes" : [
        {
            "name" : "Scene",
            "nodes" : [
                0,
                1,
                2
            ]
        }
    ],
    "nodes" : [
        {
            "name" : "Light",
            "rotation" : [
                0.16907575726509094,
                0.7558803558349609,
                -0.27217137813568115,
                0.570947527885437
            ],
            "translation" : [
                4.076245307922363,
                5.903861999511719,
                -1.0054539442062378
            ]
        },
        {
            "name" : "Camera",
            "rotation" : [
                0.483536034822464,
                0.33687159419059753,
                -0.20870360732078552,
                0.7804827094078064
            ],
            "translation" : [
                7.358891487121582,
                4.958309173583984,
                6.925790786743164
            ]
        },
        {
            "mesh" : 0,
            "name" : "02f-Cafeina",
            "rotation" : [
                0.7071068286895752,
                0,
                0,
                0.7071067094802856
            ]
        }
    ],
    "materials" : [
        {
            "doubleSided" : true,
            "emissiveFactor" : [
                0,
                0,
                0
            ],
            "name" : "k909090",
            "pbrMetallicRoughness" : {
                "baseColorFactor" : [
                    0.05999999865889549,
                    0.05999999865889549,
                    0.05999999865889549,
                    1
                ],
                "metallicFactor" : 0,
                "roughnessFactor" : 0.5744284987449646
            }
        },
        {
            "doubleSided" : true,
            "emissiveFactor" : [
                0,
                0,
                0
            ],
            "name" : "kff0d0d",
            "pbrMetallicRoughness" : {
                "baseColorFactor" : [
                    1,
                    0.054999999701976776,
                    0.054999999701976776,
                    1
                ],
                "metallicFactor" : 0,
                "roughnessFactor" : 0.5744284987449646
            }
        },
        {
            "doubleSided" : true,
            "emissiveFactor" : [
                0,
                0,
                0
            ],
            "name" : "k3050f8",
            "pbrMetallicRoughness" : {
                "baseColorFactor" : [
                    0.19099999964237213,
                    0.3160000145435333,
                    0.9729999899864197,
                    1
                ],
                "metallicFactor" : 0,
                "roughnessFactor" : 0.5744284987449646
            }
        },
        {
            "doubleSided" : true,
            "emissiveFactor" : [
                0,
                0,
                0
            ],
            "name" : "kffffff",
            "pbrMetallicRoughness" : {
                "baseColorFactor" : [
                    1,
                    1,
                    1,
                    1
                ],
                "metallicFactor" : 0,
                "roughnessFactor" : 0.5744284987449646
            }
        }
    ],
    "meshes" : [
        {
            "name" : "02f-Cafeina",
            "primitives" : [
                {
                    "attributes" : {
                        "POSITION" : 0,
                        "NORMAL" : 1
                    },
                    "indices" : 2,
                    "material" : 0
                },
                {
                    "attributes" : {
                        "POSITION" : 3,
                        "NORMAL" : 4
                    },
                    "indices" : 5,
                    "material" : 1
                },
                {
                    "attributes" : {
                        "POSITION" : 6,
                        "NORMAL" : 7
                    },
                    "indices" : 8,
                    "material" : 2
                },
                {
                    "attributes" : {
                        "POSITION" : 9,
                        "NORMAL" : 10
                    },
                    "indices" : 11,
                    "material" : 3
                }
            ]
        }
    ],
    "accessors" : [
        {
            "bufferView" : 0,
            "componentType" : 5126,
            "count" : 27768,
            "max" : [
                2.7456347942352295,
                0.5389395952224731,
                2.6469006538391113
            ],
            "min" : [
                -3.756136417388916,
                -0.5391554236412048,
                -3.0265519618988037
            ],
            "type" : "VEC3"
        },
        {
            "bufferView" : 1,
            "componentType" : 5126,
            "count" : 27768,
            "type" : "VEC3"
        },
        {
            "bufferView" : 2,
            "componentType" : 5123,
            "count" : 159864,
            "type" : "SCALAR"
        },
        {
            "bufferView" : 3,
            "componentType" : 5126,
            "count" : 4140,
            "max" : [
                3.297799825668335,
                0.3044999837875366,
                2.7319998741149902
            ],
            "min" : [
                -0.7418999671936035,
                -0.3035999834537506,
                -0.687999963760376
            ],
            "type" : "VEC3"
        },
        {
            "bufferView" : 4,
            "componentType" : 5126,
            "count" : 4140,
            "type" : "VEC3"
        },
        {
            "bufferView" : 5,
            "componentType" : 5123,
            "count" : 23904,
            "type" : "SCALAR"
        },
        {
            "bufferView" : 6,
            "componentType" : 5126,
            "count" : 11136,
            "max" : [
                1.8370543718338013,
                0.3100999891757965,
                1.6597980260849
            ],
            "min" : [
                -2.829814910888672,
                -0.31029999256134033,
                -2.2441999912261963
            ],
            "type" : "VEC3"
        },
        {
            "bufferView" : 7,
            "componentType" : 5126,
            "count" : 11136,
            "type" : "VEC3"
        },
        {
            "bufferView" : 8,
            "componentType" : 5123,
            "count" : 64032,
            "type" : "SCALAR"
        },
        {
            "bufferView" : 9,
            "componentType" : 5126,
            "count" : 13560,
            "max" : [
                3.3838000297546387,
                1.2477999925613403,
                3.243499994277954
            ],
            "min" : [
                -4.387499809265137,
                -1.2480000257492065,
                -3.5266001224517822
            ],
            "type" : "VEC3"
        },
        {
            "bufferView" : 10,
            "componentType" : 5126,
            "count" : 13560,
            "type" : "VEC3"
        },
        {
            "bufferView" : 11,
            "componentType" : 5123,
            "count" : 78960,
            "type" : "SCALAR"
        }
    ],
    "bufferViews" : [
        {
            "buffer" : 0,
            "byteLength" : 333216,
            "byteOffset" : 0
        },
        {
            "buffer" : 0,
            "byteLength" : 333216,
            "byteOffset" : 333216
        },
        {
            "buffer" : 0,
            "byteLength" : 319728,
            "byteOffset" : 666432
        },
        {
            "buffer" : 0,
            "byteLength" : 49680,
            "byteOffset" : 986160
        },
        {
            "buffer" : 0,
            "byteLength" : 49680,
            "byteOffset" : 1035840
        },
        {
            "buffer" : 0,
            "byteLength" : 47808,
            "byteOffset" : 1085520
        },
        {
            "buffer" : 0,
            "byteLength" : 133632,
            "byteOffset" : 1133328
        },
        {
            "buffer" : 0,
            "byteLength" : 133632,
            "byteOffset" : 1266960
        },
        {
            "buffer" : 0,
            "byteLength" : 128064,
            "byteOffset" : 1400592
        },
        {
            "buffer" : 0,
            "byteLength" : 162720,
            "byteOffset" : 1528656
        },
        {
            "buffer" : 0,
            "byteLength" : 162720,
            "byteOffset" : 1691376
        },
        {
            "buffer" : 0,
            "byteLength" : 157920,
            "byteOffset" : 1854096
        }
    ],
    "buffers" : [
        {
            "byteLength" : 2012016,
            "uri" : "data:application/octet-stream;base64,"
        }
    ]
}
