{
    "asset" : {
        "generator" : "Khronos glTF Blender I/O v1.2.75",
        "version" : "2.0"
    },
    "scene" : 0,
    "scenes" : [
        {
            "name" : "Scene",
            "nodes" : [
                0,
                1
            ]
        }
    ],
    "nodes" : [
        {
            "mesh" : 0,
            "name" : "LXC",
            "rotation" : [
                0.017452405765652657,
                0,
                0,
                0.9998477101325989
            ],
            "scale" : [
                2,
                2,
                2
            ],
            "translation" : [
                0,
                0.5,
                0
            ]
        },
        {
            "mesh" : 1,
            "name" : "CpRh4V6O19",
            "rotation" : [
                0.7071068286895752,
                0,
                0,
                0.7071067094802856
            ],
            "scale" : [
                25,
                25,
                25
            ],
            "translation" : [
                0,
                3,
                0
            ]
        }
    ],
    "materials" : [
        {
            "alphaMode" : "BLEND",
            "doubleSided" : true,
            "emissiveFactor" : [
                0,
                0,
                0
            ],
            "name" : "LXC",
            "pbrMetallicRoughness" : {
                "baseColorTexture" : {
                    "index" : 0,
                    "texCoord" : 0
                },
                "metallicFactor" : 0,
                "roughnessFactor" : 0.5
            }
        },
        {
            "doubleSided" : true,
            "emissiveFactor" : [
                0,
                0,
                0
            ],
            "name" : "k4b0082",
            "pbrMetallicRoughness" : {
                "baseColorFactor" : [
                    0.296999990940094,
                    0,
                    0.5120000243186951,
                    1
                ],
                "metallicFactor" : 0,
                "roughnessFactor" : 0.5744284987449646
            }
        },
        {
            "doubleSided" : true,
            "emissiveFactor" : [
                0,
                0,
                0
            ],
            "name" : "ka6a6ab",
            "pbrMetallicRoughness" : {
                "baseColorFactor" : [
                    0.03315212205052376,
                    0.6720000505447388,
                    0.13926832377910614,
                    1
                ],
                "metallicFactor" : 0,
                "roughnessFactor" : 0.5744284987449646
            }
        },
        {
            "doubleSided" : true,
            "emissiveFactor" : [
                0,
                0,
                0
            ],
            "name" : "kff0d0d",
            "pbrMetallicRoughness" : {
                "baseColorFactor" : [
                    1,
                    0.054999999701976776,
                    0.054999999701976776,
                    1
                ],
                "metallicFactor" : 0,
                "roughnessFactor" : 0.5744284987449646
            }
        },
        {
            "doubleSided" : true,
            "emissiveFactor" : [
                0,
                0,
                0
            ],
            "name" : "k909090.007",
            "pbrMetallicRoughness" : {
                "baseColorFactor" : [
                    0.08714204281568527,
                    0.08714204281568527,
                    0.08714204281568527,
                    1
                ],
                "metallicFactor" : 0,
                "roughnessFactor" : 0.5744284987449646
            }
        },
        {
            "doubleSided" : true,
            "emissiveFactor" : [
                0,
                0,
                0
            ],
            "name" : "kffffff",
            "pbrMetallicRoughness" : {
                "baseColorFactor" : [
                    1,
                    1,
                    1,
                    1
                ],
                "metallicFactor" : 0,
                "roughnessFactor" : 0.5744284987449646
            }
        }
    ],
    "meshes" : [
        {
            "name" : "LXC",
            "primitives" : [
                {
                    "attributes" : {
                        "POSITION" : 0,
                        "NORMAL" : 1,
                        "TEXCOORD_0" : 2
                    },
                    "indices" : 3,
                    "material" : 0
                }
            ]
        },
        {
            "name" : "CpRh4V6O19",
            "primitives" : [
                {
                    "attributes" : {
                        "POSITION" : 4,
                        "NORMAL" : 5
                    },
                    "indices" : 6,
                    "material" : 1
                },
                {
                    "attributes" : {
                        "POSITION" : 7,
                        "NORMAL" : 8
                    },
                    "indices" : 9,
                    "material" : 2
                },
                {
                    "attributes" : {
                        "POSITION" : 10,
                        "NORMAL" : 11
                    },
                    "indices" : 12,
                    "material" : 3
                },
                {
                    "attributes" : {
                        "POSITION" : 13,
                        "NORMAL" : 14
                    },
                    "indices" : 15,
                    "material" : 4
                },
                {
                    "attributes" : {
                        "POSITION" : 16,
                        "NORMAL" : 17
                    },
                    "indices" : 18,
                    "material" : 5
                }
            ]
        }
    ],
    "textures" : [
        {
            "sampler" : 0,
            "source" : 0
        }
    ],
    "images" : [
        {
            "bufferView" : 4,
            "mimeType" : "image/png",
            "name" : "LXC"
        }
    ],
    "accessors" : [
        {
            "bufferView" : 0,
            "componentType" : 5126,
            "count" : 4,
            "max" : [
                1.4638515710830688,
                1.8626504783014752e-09,
                1.9518022537231445
            ],
            "min" : [
                -1.4638515710830688,
                -1.8626504783014752e-09,
                -1.9518022537231445
            ],
            "type" : "VEC3"
        },
        {
            "bufferView" : 1,
            "componentType" : 5126,
            "count" : 4,
            "type" : "VEC3"
        },
        {
            "bufferView" : 2,
            "componentType" : 5126,
            "count" : 4,
            "type" : "VEC2"
        },
        {
            "bufferView" : 3,
            "componentType" : 5123,
            "count" : 6,
            "type" : "SCALAR"
        },
        {
            "bufferView" : 5,
            "componentType" : 5126,
            "count" : 2066,
            "max" : [
                0.031697001308202744,
                0.031097164377570152,
                0.031693294644355774
            ],
            "min" : [
                -0.031697001308202744,
                -0.031098000705242157,
                -0.031693313270807266
            ],
            "type" : "VEC3"
        },
        {
            "bufferView" : 6,
            "componentType" : 5126,
            "count" : 2066,
            "type" : "VEC3"
        },
        {
            "bufferView" : 7,
            "componentType" : 5123,
            "count" : 11244,
            "type" : "SCALAR"
        },
        {
            "bufferView" : 8,
            "componentType" : 5126,
            "count" : 2397,
            "max" : [
                0.030364714562892914,
                0.030332934111356735,
                0.03036399930715561
            ],
            "min" : [
                -0.030364714562892914,
                -0.030332934111356735,
                -0.03036399930715561
            ],
            "type" : "VEC3"
        },
        {
            "bufferView" : 9,
            "componentType" : 5126,
            "count" : 2397,
            "type" : "VEC3"
        },
        {
            "bufferView" : 10,
            "componentType" : 5123,
            "count" : 13086,
            "type" : "SCALAR"
        },
        {
            "bufferView" : 11,
            "componentType" : 5126,
            "count" : 3363,
            "max" : [
                0.041195765137672424,
                0.04134008288383484,
                0.0412382110953331
            ],
            "min" : [
                -0.0413055457174778,
                -0.04133069887757301,
                -0.041256945580244064
            ],
            "type" : "VEC3"
        },
        {
            "bufferView" : 12,
            "componentType" : 5126,
            "count" : 3363,
            "type" : "VEC3"
        },
        {
            "bufferView" : 13,
            "componentType" : 5123,
            "count" : 18570,
            "type" : "SCALAR"
        },
        {
            "bufferView" : 14,
            "componentType" : 5126,
            "count" : 9134,
            "max" : [
                0.058253999799489975,
                0.0576310008764267,
                0.05827400088310242
            ],
            "min" : [
                -0.058253999799489975,
                -0.05761399865150452,
                -0.05827400088310242
            ],
            "type" : "VEC3"
        },
        {
            "bufferView" : 15,
            "componentType" : 5126,
            "count" : 9134,
            "type" : "VEC3"
        },
        {
            "bufferView" : 16,
            "componentType" : 5123,
            "count" : 50004,
            "type" : "SCALAR"
        },
        {
            "bufferView" : 17,
            "componentType" : 5126,
            "count" : 5961,
            "max" : [
                0.06462961435317993,
                0.06373348087072372,
                0.06457719951868057
            ],
            "min" : [
                -0.06460651010274887,
                -0.06387168169021606,
                -0.06452416628599167
            ],
            "type" : "VEC3"
        },
        {
            "bufferView" : 18,
            "componentType" : 5126,
            "count" : 5961,
            "type" : "VEC3"
        },
        {
            "bufferView" : 19,
            "componentType" : 5123,
            "count" : 32886,
            "type" : "SCALAR"
        }
    ],
    "bufferViews" : [
        {
            "buffer" : 0,
            "byteLength" : 48,
            "byteOffset" : 0
        },
        {
            "buffer" : 0,
            "byteLength" : 48,
            "byteOffset" : 48
        },
        {
            "buffer" : 0,
            "byteLength" : 32,
            "byteOffset" : 96
        },
        {
            "buffer" : 0,
            "byteLength" : 12,
            "byteOffset" : 128
        },
        {
            "buffer" : 0,
            "byteLength" : 162305,
            "byteOffset" : 140
        },
        {
            "buffer" : 0,
            "byteLength" : 24792,
            "byteOffset" : 162448
        },
        {
            "buffer" : 0,
            "byteLength" : 24792,
            "byteOffset" : 187240
        },
        {
            "buffer" : 0,
            "byteLength" : 22488,
            "byteOffset" : 212032
        },
        {
            "buffer" : 0,
            "byteLength" : 28764,
            "byteOffset" : 234520
        },
        {
            "buffer" : 0,
            "byteLength" : 28764,
            "byteOffset" : 263284
        },
        {
            "buffer" : 0,
            "byteLength" : 26172,
            "byteOffset" : 292048
        },
        {
            "buffer" : 0,
            "byteLength" : 40356,
            "byteOffset" : 318220
        },
        {
            "buffer" : 0,
            "byteLength" : 40356,
            "byteOffset" : 358576
        },
        {
            "buffer" : 0,
            "byteLength" : 37140,
            "byteOffset" : 398932
        },
        {
            "buffer" : 0,
            "byteLength" : 109608,
            "byteOffset" : 436072
        },
        {
            "buffer" : 0,
            "byteLength" : 109608,
            "byteOffset" : 545680
        },
        {
            "buffer" : 0,
            "byteLength" : 100008,
            "byteOffset" : 655288
        },
        {
            "buffer" : 0,
            "byteLength" : 71532,
            "byteOffset" : 755296
        },
        {
            "buffer" : 0,
            "byteLength" : 71532,
            "byteOffset" : 826828
        },
        {
            "buffer" : 0,
            "byteLength" : 65772,
            "byteOffset" : 898360
        }
    ],
    "samplers" : [
        {
            "magFilter" : 9729,
            "minFilter" : 9986
        }
    ],
    "buffers" : [
        {
            "byteLength" : 964132,
            "uri" : "data:application/octet-stream;base64,"
        }
    ]
}
