{
    "asset" : {
        "generator" : "Khronos glTF Blender I/O v1.2.75",
        "version" : "2.0"
    },
    "scene" : 0,
    "scenes" : [
        {
            "name" : "Scene",
            "nodes" : [
                0,
                1
            ]
        }
    ],
    "nodes" : [
        {
            "mesh" : 0,
            "name" : "LXC",
            "rotation" : [
                0.017452405765652657,
                0,
                0,
                0.9998477101325989
            ],
            "scale" : [
                2,
                2,
                2
            ],
            "translation" : [
                0,
                0.5,
                0
            ]
        },
        {
            "mesh" : 1,
            "name" : "A.001",
            "rotation" : [
                -0.22977736592292786,
                -0.4252805709838867,
                0.26506346464157104,
                0.8343141674995422
            ],
            "scale" : [
                0.20000000298023224,
                0.20000000298023224,
                0.20000000298023224
            ],
            "translation" : [
                -0.5480295419692993,
                1.4233614206314087,
                0
            ]
        }
    ],
    "materials" : [
        {
            "alphaMode" : "BLEND",
            "doubleSided" : true,
            "emissiveFactor" : [
                0,
                0,
                0
            ],
            "name" : "LXC",
            "pbrMetallicRoughness" : {
                "baseColorTexture" : {
                    "index" : 0,
                    "texCoord" : 0
                },
                "metallicFactor" : 0,
                "roughnessFactor" : 0.5
            }
        },
        {
            "doubleSided" : true,
            "emissiveFactor" : [
                0,
                0,
                0
            ],
            "name" : "k267dab.006",
            "pbrMetallicRoughness" : {
                "baseColorFactor" : [
                    0.15199999511241913,
                    0.492000013589859,
                    0.671999990940094,
                    1
                ],
                "metallicFactor" : 0,
                "roughnessFactor" : 0.5744284987449646
            }
        },
        {
            "doubleSided" : true,
            "emissiveFactor" : [
                0,
                0,
                0
            ],
            "name" : "kffa100.006",
            "pbrMetallicRoughness" : {
                "baseColorFactor" : [
                    1,
                    0.6330000162124634,
                    0,
                    1
                ],
                "metallicFactor" : 0,
                "roughnessFactor" : 0.5744284987449646
            }
        },
        {
            "doubleSided" : true,
            "emissiveFactor" : [
                0,
                0,
                0
            ],
            "name" : "kff8000.004",
            "pbrMetallicRoughness" : {
                "baseColorFactor" : [
                    1,
                    0.5040000081062317,
                    0,
                    1
                ],
                "metallicFactor" : 0,
                "roughnessFactor" : 0.5744284987449646
            }
        },
        {
            "doubleSided" : true,
            "emissiveFactor" : [
                0,
                0,
                0
            ],
            "name" : "k3050f8.006",
            "pbrMetallicRoughness" : {
                "baseColorFactor" : [
                    0.19099999964237213,
                    0.3160000145435333,
                    0.9729999899864197,
                    1
                ],
                "metallicFactor" : 0,
                "roughnessFactor" : 0.5744284987449646
            }
        },
        {
            "doubleSided" : true,
            "emissiveFactor" : [
                0,
                0,
                0
            ],
            "name" : "k909090.006",
            "pbrMetallicRoughness" : {
                "baseColorFactor" : [
                    0.5659999847412109,
                    0.5659999847412109,
                    0.5659999847412109,
                    1
                ],
                "metallicFactor" : 0,
                "roughnessFactor" : 0.5744284987449646
            }
        }
    ],
    "meshes" : [
        {
            "name" : "LXC",
            "primitives" : [
                {
                    "attributes" : {
                        "POSITION" : 0,
                        "NORMAL" : 1,
                        "TEXCOORD_0" : 2
                    },
                    "indices" : 3,
                    "material" : 0
                }
            ]
        },
        {
            "name" : "A.001",
            "primitives" : [
                {
                    "attributes" : {
                        "POSITION" : 4,
                        "NORMAL" : 5
                    },
                    "indices" : 6,
                    "material" : 1
                },
                {
                    "attributes" : {
                        "POSITION" : 7,
                        "NORMAL" : 8
                    },
                    "indices" : 9,
                    "material" : 2
                },
                {
                    "attributes" : {
                        "POSITION" : 10,
                        "NORMAL" : 11
                    },
                    "indices" : 12,
                    "material" : 3
                },
                {
                    "attributes" : {
                        "POSITION" : 13,
                        "NORMAL" : 14
                    },
                    "indices" : 15,
                    "material" : 4
                },
                {
                    "attributes" : {
                        "POSITION" : 16,
                        "NORMAL" : 17
                    },
                    "indices" : 18,
                    "material" : 5
                }
            ]
        }
    ],
    "textures" : [
        {
            "sampler" : 0,
            "source" : 0
        }
    ],
    "images" : [
        {
            "bufferView" : 4,
            "mimeType" : "image/png",
            "name" : "LXC"
        }
    ],
    "accessors" : [
        {
            "bufferView" : 0,
            "componentType" : 5126,
            "count" : 4,
            "max" : [
                1.4638515710830688,
                1.8626504783014752e-09,
                1.9518022537231445
            ],
            "min" : [
                -1.4638515710830688,
                -1.8626504783014752e-09,
                -1.9518022537231445
            ],
            "type" : "VEC3"
        },
        {
            "bufferView" : 1,
            "componentType" : 5126,
            "count" : 4,
            "type" : "VEC3"
        },
        {
            "bufferView" : 2,
            "componentType" : 5126,
            "count" : 4,
            "type" : "VEC2"
        },
        {
            "bufferView" : 3,
            "componentType" : 5123,
            "count" : 6,
            "type" : "SCALAR"
        },
        {
            "bufferView" : 5,
            "componentType" : 5126,
            "count" : 1964,
            "max" : [
                8.230027198791504,
                8.092634201049805,
                1.4505854845046997
            ],
            "min" : [
                3.8370845317840576,
                3.340738296508789,
                -3.7542200088500977
            ],
            "type" : "VEC3"
        },
        {
            "bufferView" : 6,
            "componentType" : 5126,
            "count" : 1964,
            "type" : "VEC3"
        },
        {
            "bufferView" : 7,
            "componentType" : 5123,
            "count" : 9912,
            "type" : "SCALAR"
        },
        {
            "bufferView" : 8,
            "componentType" : 5126,
            "count" : 1277,
            "max" : [
                9.4981107711792,
                8.991520881652832,
                1.9601857662200928
            ],
            "min" : [
                2.55690336227417,
                2.446018695831299,
                -4.289181232452393
            ],
            "type" : "VEC3"
        },
        {
            "bufferView" : 9,
            "componentType" : 5126,
            "count" : 1277,
            "type" : "VEC3"
        },
        {
            "bufferView" : 10,
            "componentType" : 5123,
            "count" : 6615,
            "type" : "SCALAR"
        },
        {
            "bufferView" : 11,
            "componentType" : 5126,
            "count" : 934,
            "max" : [
                9.31765365600586,
                9.144455909729004,
                3.2574262619018555
            ],
            "min" : [
                2.474339008331299,
                1.7169911861419678,
                -5.474355697631836
            ],
            "type" : "VEC3"
        },
        {
            "bufferView" : 12,
            "componentType" : 5126,
            "count" : 934,
            "type" : "VEC3"
        },
        {
            "bufferView" : 13,
            "componentType" : 5123,
            "count" : 4764,
            "type" : "SCALAR"
        },
        {
            "bufferView" : 14,
            "componentType" : 5126,
            "count" : 281,
            "max" : [
                10.054837226867676,
                10.3871488571167,
                1.060666799545288
            ],
            "min" : [
                8.05905818939209,
                8.901596069335938,
                -1.9595445394515991
            ],
            "type" : "VEC3"
        },
        {
            "bufferView" : 15,
            "componentType" : 5126,
            "count" : 281,
            "type" : "VEC3"
        },
        {
            "bufferView" : 16,
            "componentType" : 5123,
            "count" : 1434,
            "type" : "SCALAR"
        },
        {
            "bufferView" : 17,
            "componentType" : 5126,
            "count" : 5973,
            "max" : [
                12.553023338317871,
                11.960040092468262,
                5.403379440307617
            ],
            "min" : [
                0.3451313078403473,
                -0.35134297609329224,
                -7.79385232925415
            ],
            "type" : "VEC3"
        },
        {
            "bufferView" : 18,
            "componentType" : 5126,
            "count" : 5973,
            "type" : "VEC3"
        },
        {
            "bufferView" : 19,
            "componentType" : 5123,
            "count" : 32310,
            "type" : "SCALAR"
        }
    ],
    "bufferViews" : [
        {
            "buffer" : 0,
            "byteLength" : 48,
            "byteOffset" : 0
        },
        {
            "buffer" : 0,
            "byteLength" : 48,
            "byteOffset" : 48
        },
        {
            "buffer" : 0,
            "byteLength" : 32,
            "byteOffset" : 96
        },
        {
            "buffer" : 0,
            "byteLength" : 12,
            "byteOffset" : 128
        },
        {
            "buffer" : 0,
            "byteLength" : 162305,
            "byteOffset" : 140
        },
        {
            "buffer" : 0,
            "byteLength" : 23568,
            "byteOffset" : 162448
        },
        {
            "buffer" : 0,
            "byteLength" : 23568,
            "byteOffset" : 186016
        },
        {
            "buffer" : 0,
            "byteLength" : 19824,
            "byteOffset" : 209584
        },
        {
            "buffer" : 0,
            "byteLength" : 15324,
            "byteOffset" : 229408
        },
        {
            "buffer" : 0,
            "byteLength" : 15324,
            "byteOffset" : 244732
        },
        {
            "buffer" : 0,
            "byteLength" : 13230,
            "byteOffset" : 260056
        },
        {
            "buffer" : 0,
            "byteLength" : 11208,
            "byteOffset" : 273288
        },
        {
            "buffer" : 0,
            "byteLength" : 11208,
            "byteOffset" : 284496
        },
        {
            "buffer" : 0,
            "byteLength" : 9528,
            "byteOffset" : 295704
        },
        {
            "buffer" : 0,
            "byteLength" : 3372,
            "byteOffset" : 305232
        },
        {
            "buffer" : 0,
            "byteLength" : 3372,
            "byteOffset" : 308604
        },
        {
            "buffer" : 0,
            "byteLength" : 2868,
            "byteOffset" : 311976
        },
        {
            "buffer" : 0,
            "byteLength" : 71676,
            "byteOffset" : 314844
        },
        {
            "buffer" : 0,
            "byteLength" : 71676,
            "byteOffset" : 386520
        },
        {
            "buffer" : 0,
            "byteLength" : 64620,
            "byteOffset" : 458196
        }
    ],
    "samplers" : [
        {
            "magFilter" : 9729,
            "minFilter" : 9986
        }
    ],
    "buffers" : [
        {
            "byteLength" : 522816,
            "uri" : "data:application/octet-stream;base64,"
        }
    ]
}
