{
    "asset" : {
        "generator" : "Khronos glTF Blender I/O v1.2.75",
        "version" : "2.0"
    },
    "scene" : 0,
    "scenes" : [
        {
            "name" : "Scene",
            "nodes" : [
                0,
                1
            ]
        }
    ],
    "nodes" : [
        {
            "mesh" : 0,
            "name" : "B",
            "rotation" : [
                0.45278987288475037,
                0.6572058796882629,
                0.0396139919757843,
                0.6012424230575562
            ],
            "scale" : [
                0.20000000298023224,
                0.20000000298023224,
                0.20000000298023224
            ],
            "translation" : [
                0,
                3,
                0
            ]
        },
        {
            "mesh" : 1,
            "name" : "LXC",
            "rotation" : [
                0.017452405765652657,
                0,
                0,
                0.9998477101325989
            ],
            "scale" : [
                2,
                2,
                2
            ],
            "translation" : [
                0,
                0.5,
                0
            ]
        }
    ],
    "materials" : [
        {
            "doubleSided" : true,
            "emissiveFactor" : [
                0,
                0,
                0
            ],
            "name" : "k267dab.001",
            "pbrMetallicRoughness" : {
                "baseColorFactor" : [
                    0.15199999511241913,
                    0.492000013589859,
                    0.671999990940094,
                    1
                ],
                "metallicFactor" : 0,
                "roughnessFactor" : 0.5744284987449646
            }
        },
        {
            "doubleSided" : true,
            "emissiveFactor" : [
                0,
                0,
                0
            ],
            "name" : "kffa100.001",
            "pbrMetallicRoughness" : {
                "baseColorFactor" : [
                    1,
                    0.6330000162124634,
                    0,
                    1
                ],
                "metallicFactor" : 0,
                "roughnessFactor" : 0.5744284987449646
            }
        },
        {
            "doubleSided" : true,
            "emissiveFactor" : [
                0,
                0,
                0
            ],
            "name" : "k3050f8.001",
            "pbrMetallicRoughness" : {
                "baseColorFactor" : [
                    0.19099999964237213,
                    0.3160000145435333,
                    0.9729999899864197,
                    1
                ],
                "metallicFactor" : 0,
                "roughnessFactor" : 0.5744284987449646
            }
        },
        {
            "doubleSided" : true,
            "emissiveFactor" : [
                0,
                0,
                0
            ],
            "name" : "k909090.001",
            "pbrMetallicRoughness" : {
                "baseColorFactor" : [
                    0.5659999847412109,
                    0.5659999847412109,
                    0.5659999847412109,
                    1
                ],
                "metallicFactor" : 0,
                "roughnessFactor" : 0.5744284987449646
            }
        },
        {
            "doubleSided" : true,
            "emissiveFactor" : [
                0,
                0,
                0
            ],
            "name" : "kff8000.001",
            "pbrMetallicRoughness" : {
                "baseColorFactor" : [
                    1,
                    0.5040000081062317,
                    0,
                    1
                ],
                "metallicFactor" : 0,
                "roughnessFactor" : 0.5744284987449646
            }
        },
        {
            "alphaMode" : "BLEND",
            "doubleSided" : true,
            "emissiveFactor" : [
                0,
                0,
                0
            ],
            "name" : "LXC",
            "pbrMetallicRoughness" : {
                "baseColorTexture" : {
                    "index" : 0,
                    "texCoord" : 0
                },
                "metallicFactor" : 0,
                "roughnessFactor" : 0.5
            }
        }
    ],
    "meshes" : [
        {
            "name" : "B",
            "primitives" : [
                {
                    "attributes" : {
                        "POSITION" : 0,
                        "NORMAL" : 1
                    },
                    "indices" : 2,
                    "material" : 0
                },
                {
                    "attributes" : {
                        "POSITION" : 3,
                        "NORMAL" : 4
                    },
                    "indices" : 5,
                    "material" : 1
                },
                {
                    "attributes" : {
                        "POSITION" : 6,
                        "NORMAL" : 7
                    },
                    "indices" : 8,
                    "material" : 2
                },
                {
                    "attributes" : {
                        "POSITION" : 9,
                        "NORMAL" : 10
                    },
                    "indices" : 11,
                    "material" : 3
                },
                {
                    "attributes" : {
                        "POSITION" : 12,
                        "NORMAL" : 13
                    },
                    "indices" : 14,
                    "material" : 4
                }
            ]
        },
        {
            "name" : "LXC",
            "primitives" : [
                {
                    "attributes" : {
                        "POSITION" : 15,
                        "NORMAL" : 16,
                        "TEXCOORD_0" : 17
                    },
                    "indices" : 18,
                    "material" : 5
                }
            ]
        }
    ],
    "textures" : [
        {
            "sampler" : 0,
            "source" : 0
        }
    ],
    "images" : [
        {
            "bufferView" : 19,
            "mimeType" : "image/png",
            "name" : "LXC"
        }
    ],
    "accessors" : [
        {
            "bufferView" : 0,
            "componentType" : 5126,
            "count" : 1935,
            "max" : [
                2.1956634521484375,
                2.4038143157958984,
                2.410364866256714
            ],
            "min" : [
                -2.1956634521484375,
                -2.4038143157958984,
                -2.4001705646514893
            ],
            "type" : "VEC3"
        },
        {
            "bufferView" : 1,
            "componentType" : 5126,
            "count" : 1935,
            "type" : "VEC3"
        },
        {
            "bufferView" : 2,
            "componentType" : 5123,
            "count" : 9819,
            "type" : "SCALAR"
        },
        {
            "bufferView" : 3,
            "componentType" : 5126,
            "count" : 1228,
            "max" : [
                3.476306200027466,
                2.9850056171417236,
                3.380058765411377
            ],
            "min" : [
                -3.4738409519195557,
                -2.9871203899383545,
                -3.370810031890869
            ],
            "type" : "VEC3"
        },
        {
            "bufferView" : 4,
            "componentType" : 5126,
            "count" : 1228,
            "type" : "VEC3"
        },
        {
            "bufferView" : 5,
            "componentType" : 5123,
            "count" : 6390,
            "type" : "SCALAR"
        },
        {
            "bufferView" : 6,
            "componentType" : 5126,
            "count" : 597,
            "max" : [
                3.9312071800231934,
                3.969700336456299,
                3.8359012603759766
            ],
            "min" : [
                -3.9312071800231934,
                -3.9666895866394043,
                -3.8359012603759766
            ],
            "type" : "VEC3"
        },
        {
            "bufferView" : 7,
            "componentType" : 5126,
            "count" : 597,
            "type" : "VEC3"
        },
        {
            "bufferView" : 8,
            "componentType" : 5123,
            "count" : 3078,
            "type" : "SCALAR"
        },
        {
            "bufferView" : 9,
            "componentType" : 5126,
            "count" : 8196,
            "max" : [
                5.8358564376831055,
                6.615608215332031,
                8.154999732971191
            ],
            "min" : [
                -5.8358564376831055,
                -6.616286754608154,
                -8.15921401977539
            ],
            "type" : "VEC3"
        },
        {
            "bufferView" : 10,
            "componentType" : 5126,
            "count" : 8196,
            "type" : "VEC3"
        },
        {
            "bufferView" : 11,
            "componentType" : 5123,
            "count" : 44133,
            "type" : "SCALAR"
        },
        {
            "bufferView" : 12,
            "componentType" : 5126,
            "count" : 743,
            "max" : [
                3.5814502239227295,
                4.1821160316467285,
                4.082515239715576
            ],
            "min" : [
                -3.5814502239227295,
                -4.1821160316467285,
                -4.0774030685424805
            ],
            "type" : "VEC3"
        },
        {
            "bufferView" : 13,
            "componentType" : 5126,
            "count" : 743,
            "type" : "VEC3"
        },
        {
            "bufferView" : 14,
            "componentType" : 5123,
            "count" : 3777,
            "type" : "SCALAR"
        },
        {
            "bufferView" : 15,
            "componentType" : 5126,
            "count" : 4,
            "max" : [
                1.4638515710830688,
                1.8626504783014752e-09,
                1.9518022537231445
            ],
            "min" : [
                -1.4638515710830688,
                -1.8626504783014752e-09,
                -1.9518022537231445
            ],
            "type" : "VEC3"
        },
        {
            "bufferView" : 16,
            "componentType" : 5126,
            "count" : 4,
            "type" : "VEC3"
        },
        {
            "bufferView" : 17,
            "componentType" : 5126,
            "count" : 4,
            "type" : "VEC2"
        },
        {
            "bufferView" : 18,
            "componentType" : 5123,
            "count" : 6,
            "type" : "SCALAR"
        }
    ],
    "bufferViews" : [
        {
            "buffer" : 0,
            "byteLength" : 23220,
            "byteOffset" : 0
        },
        {
            "buffer" : 0,
            "byteLength" : 23220,
            "byteOffset" : 23220
        },
        {
            "buffer" : 0,
            "byteLength" : 19638,
            "byteOffset" : 46440
        },
        {
            "buffer" : 0,
            "byteLength" : 14736,
            "byteOffset" : 66080
        },
        {
            "buffer" : 0,
            "byteLength" : 14736,
            "byteOffset" : 80816
        },
        {
            "buffer" : 0,
            "byteLength" : 12780,
            "byteOffset" : 95552
        },
        {
            "buffer" : 0,
            "byteLength" : 7164,
            "byteOffset" : 108332
        },
        {
            "buffer" : 0,
            "byteLength" : 7164,
            "byteOffset" : 115496
        },
        {
            "buffer" : 0,
            "byteLength" : 6156,
            "byteOffset" : 122660
        },
        {
            "buffer" : 0,
            "byteLength" : 98352,
            "byteOffset" : 128816
        },
        {
            "buffer" : 0,
            "byteLength" : 98352,
            "byteOffset" : 227168
        },
        {
            "buffer" : 0,
            "byteLength" : 88266,
            "byteOffset" : 325520
        },
        {
            "buffer" : 0,
            "byteLength" : 8916,
            "byteOffset" : 413788
        },
        {
            "buffer" : 0,
            "byteLength" : 8916,
            "byteOffset" : 422704
        },
        {
            "buffer" : 0,
            "byteLength" : 7554,
            "byteOffset" : 431620
        },
        {
            "buffer" : 0,
            "byteLength" : 48,
            "byteOffset" : 439176
        },
        {
            "buffer" : 0,
            "byteLength" : 48,
            "byteOffset" : 439224
        },
        {
            "buffer" : 0,
            "byteLength" : 32,
            "byteOffset" : 439272
        },
        {
            "buffer" : 0,
            "byteLength" : 12,
            "byteOffset" : 439304
        },
        {
            "buffer" : 0,
            "byteLength" : 162305,
            "byteOffset" : 439316
        }
    ],
    "samplers" : [
        {
            "magFilter" : 9729,
            "minFilter" : 9986
        }
    ],
    "buffers" : [
        {
            "byteLength" : 601624,
            "uri" : "data:application/octet-stream;base64,"
        }
    ]
}
