{
    "asset" : {
        "generator" : "Khronos glTF Blender I/O v1.2.75",
        "version" : "2.0"
    },
    "scene" : 0,
    "scenes" : [
        {
            "name" : "Scene",
            "nodes" : [
                0,
                1
            ]
        }
    ],
    "nodes" : [
        {
            "mesh" : 0,
            "name" : "C",
            "rotation" : [
                0.5,
                -0.5000000596046448,
                -0.4999999701976776,
                0.4999999403953552
            ],
            "scale" : [
                0.20000000298023224,
                0.20000000298023224,
                0.20000000298023224
            ],
            "translation" : [
                0,
                3,
                0
            ]
        },
        {
            "mesh" : 1,
            "name" : "LXC",
            "rotation" : [
                0.017452405765652657,
                0,
                0,
                0.9998477101325989
            ],
            "scale" : [
                2,
                2,
                2
            ],
            "translation" : [
                0,
                0.5,
                0
            ]
        }
    ],
    "materials" : [
        {
            "doubleSided" : true,
            "emissiveFactor" : [
                0,
                0,
                0
            ],
            "name" : "k267dab.002",
            "pbrMetallicRoughness" : {
                "baseColorFactor" : [
                    0.15199999511241913,
                    0.492000013589859,
                    0.671999990940094,
                    1
                ],
                "metallicFactor" : 0,
                "roughnessFactor" : 0.5744284987449646
            }
        },
        {
            "doubleSided" : true,
            "emissiveFactor" : [
                0,
                0,
                0
            ],
            "name" : "k1ff01f",
            "pbrMetallicRoughness" : {
                "baseColorFactor" : [
                    0.125,
                    0.9409999847412109,
                    0.125,
                    1
                ],
                "metallicFactor" : 0,
                "roughnessFactor" : 0.5744284987449646
            }
        },
        {
            "doubleSided" : true,
            "emissiveFactor" : [
                0,
                0,
                0
            ],
            "name" : "kffa100.002",
            "pbrMetallicRoughness" : {
                "baseColorFactor" : [
                    1,
                    0.6330000162124634,
                    0,
                    1
                ],
                "metallicFactor" : 0,
                "roughnessFactor" : 0.5744284987449646
            }
        },
        {
            "doubleSided" : true,
            "emissiveFactor" : [
                0,
                0,
                0
            ],
            "name" : "k3050f8.002",
            "pbrMetallicRoughness" : {
                "baseColorFactor" : [
                    0.19099999964237213,
                    0.3160000145435333,
                    0.9729999899864197,
                    1
                ],
                "metallicFactor" : 0,
                "roughnessFactor" : 0.5744284987449646
            }
        },
        {
            "doubleSided" : true,
            "emissiveFactor" : [
                0,
                0,
                0
            ],
            "name" : "k909090.002",
            "pbrMetallicRoughness" : {
                "baseColorFactor" : [
                    0.5659999847412109,
                    0.5659999847412109,
                    0.5659999847412109,
                    1
                ],
                "metallicFactor" : 0,
                "roughnessFactor" : 0.5744284987449646
            }
        },
        {
            "doubleSided" : true,
            "emissiveFactor" : [
                0,
                0,
                0
            ],
            "name" : "kff8000.002",
            "pbrMetallicRoughness" : {
                "baseColorFactor" : [
                    1,
                    0.5040000081062317,
                    0,
                    1
                ],
                "metallicFactor" : 0,
                "roughnessFactor" : 0.5744284987449646
            }
        },
        {
            "alphaMode" : "BLEND",
            "doubleSided" : true,
            "emissiveFactor" : [
                0,
                0,
                0
            ],
            "name" : "LXC",
            "pbrMetallicRoughness" : {
                "baseColorTexture" : {
                    "index" : 0,
                    "texCoord" : 0
                },
                "metallicFactor" : 0,
                "roughnessFactor" : 0.5
            }
        }
    ],
    "meshes" : [
        {
            "name" : "C",
            "primitives" : [
                {
                    "attributes" : {
                        "POSITION" : 0,
                        "NORMAL" : 1
                    },
                    "indices" : 2,
                    "material" : 0
                },
                {
                    "attributes" : {
                        "POSITION" : 3,
                        "NORMAL" : 4
                    },
                    "indices" : 5,
                    "material" : 1
                },
                {
                    "attributes" : {
                        "POSITION" : 6,
                        "NORMAL" : 7
                    },
                    "indices" : 8,
                    "material" : 2
                },
                {
                    "attributes" : {
                        "POSITION" : 9,
                        "NORMAL" : 10
                    },
                    "indices" : 11,
                    "material" : 3
                },
                {
                    "attributes" : {
                        "POSITION" : 12,
                        "NORMAL" : 13
                    },
                    "indices" : 14,
                    "material" : 4
                },
                {
                    "attributes" : {
                        "POSITION" : 15,
                        "NORMAL" : 16
                    },
                    "indices" : 17,
                    "material" : 5
                }
            ]
        },
        {
            "name" : "LXC",
            "primitives" : [
                {
                    "attributes" : {
                        "POSITION" : 18,
                        "NORMAL" : 19,
                        "TEXCOORD_0" : 20
                    },
                    "indices" : 21,
                    "material" : 6
                }
            ]
        }
    ],
    "textures" : [
        {
            "sampler" : 0,
            "source" : 0
        }
    ],
    "images" : [
        {
            "bufferView" : 22,
            "mimeType" : "image/png",
            "name" : "LXC"
        }
    ],
    "accessors" : [
        {
            "bufferView" : 0,
            "componentType" : 5126,
            "count" : 1839,
            "max" : [
                3.0368669033050537,
                2.4885988235473633,
                2.32208251953125
            ],
            "min" : [
                -3.0368669033050537,
                -1.926658034324646,
                -2.32208251953125
            ],
            "type" : "VEC3"
        },
        {
            "bufferView" : 1,
            "componentType" : 5126,
            "count" : 1839,
            "type" : "VEC3"
        },
        {
            "bufferView" : 2,
            "componentType" : 5123,
            "count" : 9351,
            "type" : "SCALAR"
        },
        {
            "bufferView" : 3,
            "componentType" : 5126,
            "count" : 186,
            "max" : [
                0.37008753418922424,
                3.670645236968994,
                3.4113214015960693
            ],
            "min" : [
                -0.3637872040271759,
                2.38384747505188,
                -3.4086968898773193
            ],
            "type" : "VEC3"
        },
        {
            "bufferView" : 4,
            "componentType" : 5126,
            "count" : 186,
            "type" : "VEC3"
        },
        {
            "bufferView" : 5,
            "componentType" : 5123,
            "count" : 1020,
            "type" : "SCALAR"
        },
        {
            "bufferView" : 6,
            "componentType" : 5126,
            "count" : 1222,
            "max" : [
                2.1833066940307617,
                3.186142921447754,
                2.9244556427001953
            ],
            "min" : [
                -2.188537359237671,
                -2.678205728530884,
                -2.9268321990966797
            ],
            "type" : "VEC3"
        },
        {
            "bufferView" : 7,
            "componentType" : 5126,
            "count" : 1222,
            "type" : "VEC3"
        },
        {
            "bufferView" : 8,
            "componentType" : 5123,
            "count" : 6378,
            "type" : "SCALAR"
        },
        {
            "bufferView" : 9,
            "componentType" : 5126,
            "count" : 609,
            "max" : [
                5.684383392333984,
                0.9855031371116638,
                1.8480318784713745
            ],
            "min" : [
                -5.684383392333984,
                0.35107702016830444,
                -1.8480318784713745
            ],
            "type" : "VEC3"
        },
        {
            "bufferView" : 10,
            "componentType" : 5126,
            "count" : 609,
            "type" : "VEC3"
        },
        {
            "bufferView" : 11,
            "componentType" : 5123,
            "count" : 3138,
            "type" : "SCALAR"
        },
        {
            "bufferView" : 12,
            "componentType" : 5126,
            "count" : 6970,
            "max" : [
                6.702943801879883,
                3.2733311653137207,
                7.037827968597412
            ],
            "min" : [
                -6.701789855957031,
                -4.83148717880249,
                -7.028016567230225
            ],
            "type" : "VEC3"
        },
        {
            "bufferView" : 13,
            "componentType" : 5126,
            "count" : 6970,
            "type" : "VEC3"
        },
        {
            "bufferView" : 14,
            "componentType" : 5123,
            "count" : 37479,
            "type" : "SCALAR"
        },
        {
            "bufferView" : 15,
            "componentType" : 5126,
            "count" : 380,
            "max" : [
                1.0430833101272583,
                -1.8273286819458008,
                4.054738998413086
            ],
            "min" : [
                -1.0430833101272583,
                -3.50730037689209,
                -4.054738998413086
            ],
            "type" : "VEC3"
        },
        {
            "bufferView" : 16,
            "componentType" : 5126,
            "count" : 380,
            "type" : "VEC3"
        },
        {
            "bufferView" : 17,
            "componentType" : 5123,
            "count" : 1938,
            "type" : "SCALAR"
        },
        {
            "bufferView" : 18,
            "componentType" : 5126,
            "count" : 4,
            "max" : [
                1.4638515710830688,
                1.8626504783014752e-09,
                1.9518022537231445
            ],
            "min" : [
                -1.4638515710830688,
                -1.8626504783014752e-09,
                -1.9518022537231445
            ],
            "type" : "VEC3"
        },
        {
            "bufferView" : 19,
            "componentType" : 5126,
            "count" : 4,
            "type" : "VEC3"
        },
        {
            "bufferView" : 20,
            "componentType" : 5126,
            "count" : 4,
            "type" : "VEC2"
        },
        {
            "bufferView" : 21,
            "componentType" : 5123,
            "count" : 6,
            "type" : "SCALAR"
        }
    ],
    "bufferViews" : [
        {
            "buffer" : 0,
            "byteLength" : 22068,
            "byteOffset" : 0
        },
        {
            "buffer" : 0,
            "byteLength" : 22068,
            "byteOffset" : 22068
        },
        {
            "buffer" : 0,
            "byteLength" : 18702,
            "byteOffset" : 44136
        },
        {
            "buffer" : 0,
            "byteLength" : 2232,
            "byteOffset" : 62840
        },
        {
            "buffer" : 0,
            "byteLength" : 2232,
            "byteOffset" : 65072
        },
        {
            "buffer" : 0,
            "byteLength" : 2040,
            "byteOffset" : 67304
        },
        {
            "buffer" : 0,
            "byteLength" : 14664,
            "byteOffset" : 69344
        },
        {
            "buffer" : 0,
            "byteLength" : 14664,
            "byteOffset" : 84008
        },
        {
            "buffer" : 0,
            "byteLength" : 12756,
            "byteOffset" : 98672
        },
        {
            "buffer" : 0,
            "byteLength" : 7308,
            "byteOffset" : 111428
        },
        {
            "buffer" : 0,
            "byteLength" : 7308,
            "byteOffset" : 118736
        },
        {
            "buffer" : 0,
            "byteLength" : 6276,
            "byteOffset" : 126044
        },
        {
            "buffer" : 0,
            "byteLength" : 83640,
            "byteOffset" : 132320
        },
        {
            "buffer" : 0,
            "byteLength" : 83640,
            "byteOffset" : 215960
        },
        {
            "buffer" : 0,
            "byteLength" : 74958,
            "byteOffset" : 299600
        },
        {
            "buffer" : 0,
            "byteLength" : 4560,
            "byteOffset" : 374560
        },
        {
            "buffer" : 0,
            "byteLength" : 4560,
            "byteOffset" : 379120
        },
        {
            "buffer" : 0,
            "byteLength" : 3876,
            "byteOffset" : 383680
        },
        {
            "buffer" : 0,
            "byteLength" : 48,
            "byteOffset" : 387556
        },
        {
            "buffer" : 0,
            "byteLength" : 48,
            "byteOffset" : 387604
        },
        {
            "buffer" : 0,
            "byteLength" : 32,
            "byteOffset" : 387652
        },
        {
            "buffer" : 0,
            "byteLength" : 12,
            "byteOffset" : 387684
        },
        {
            "buffer" : 0,
            "byteLength" : 162305,
            "byteOffset" : 387696
        }
    ],
    "samplers" : [
        {
            "magFilter" : 9729,
            "minFilter" : 9986
        }
    ],
    "buffers" : [
        {
            "byteLength" : 550004,
            "uri" : "data:application/octet-stream;base64,"
        }
    ]
}
