{
    "asset" : {
        "generator" : "Khronos glTF Blender I/O v1.2.75",
        "version" : "2.0"
    },
    "scene" : 0,
    "scenes" : [
        {
            "name" : "Scene",
            "nodes" : [
                0,
                1
            ]
        }
    ],
    "nodes" : [
        {
            "mesh" : 0,
            "name" : "D",
            "rotation" : [
                -0.5,
                0.5,
                -0.5,
                0.4999999701976776
            ],
            "scale" : [
                0.20000000298023224,
                0.20000000298023224,
                0.20000000298023224
            ],
            "translation" : [
                0,
                3,
                0
            ]
        },
        {
            "mesh" : 1,
            "name" : "LXC",
            "rotation" : [
                0.017452405765652657,
                0,
                0,
                0.9998477101325989
            ],
            "scale" : [
                2,
                2,
                2
            ],
            "translation" : [
                0,
                0.5,
                0
            ]
        }
    ],
    "materials" : [
        {
            "doubleSided" : true,
            "emissiveFactor" : [
                0,
                0,
                0
            ],
            "name" : "k267dab.003",
            "pbrMetallicRoughness" : {
                "baseColorFactor" : [
                    0.15199999511241913,
                    0.492000013589859,
                    0.671999990940094,
                    1
                ],
                "metallicFactor" : 0,
                "roughnessFactor" : 0.5744284987449646
            }
        },
        {
            "doubleSided" : true,
            "emissiveFactor" : [
                0,
                0,
                0
            ],
            "name" : "k1ff01f.001",
            "pbrMetallicRoughness" : {
                "baseColorFactor" : [
                    0.125,
                    0.9409999847412109,
                    0.125,
                    1
                ],
                "metallicFactor" : 0,
                "roughnessFactor" : 0.5744284987449646
            }
        },
        {
            "doubleSided" : true,
            "emissiveFactor" : [
                0,
                0,
                0
            ],
            "name" : "kffa100.003",
            "pbrMetallicRoughness" : {
                "baseColorFactor" : [
                    1,
                    0.6330000162124634,
                    0,
                    1
                ],
                "metallicFactor" : 0,
                "roughnessFactor" : 0.5744284987449646
            }
        },
        {
            "doubleSided" : true,
            "emissiveFactor" : [
                0,
                0,
                0
            ],
            "name" : "k3050f8.003",
            "pbrMetallicRoughness" : {
                "baseColorFactor" : [
                    0.19099999964237213,
                    0.3160000145435333,
                    0.9729999899864197,
                    1
                ],
                "metallicFactor" : 0,
                "roughnessFactor" : 0.5744284987449646
            }
        },
        {
            "doubleSided" : true,
            "emissiveFactor" : [
                0,
                0,
                0
            ],
            "name" : "k909090.003",
            "pbrMetallicRoughness" : {
                "baseColorFactor" : [
                    0.5659999847412109,
                    0.5659999847412109,
                    0.5659999847412109,
                    1
                ],
                "metallicFactor" : 0,
                "roughnessFactor" : 0.5744284987449646
            }
        },
        {
            "doubleSided" : true,
            "emissiveFactor" : [
                0,
                0,
                0
            ],
            "name" : "kff8000.003",
            "pbrMetallicRoughness" : {
                "baseColorFactor" : [
                    1,
                    0.5040000081062317,
                    0,
                    1
                ],
                "metallicFactor" : 0,
                "roughnessFactor" : 0.5744284987449646
            }
        },
        {
            "alphaMode" : "BLEND",
            "doubleSided" : true,
            "emissiveFactor" : [
                0,
                0,
                0
            ],
            "name" : "LXC",
            "pbrMetallicRoughness" : {
                "baseColorTexture" : {
                    "index" : 0,
                    "texCoord" : 0
                },
                "metallicFactor" : 0,
                "roughnessFactor" : 0.5
            }
        }
    ],
    "meshes" : [
        {
            "name" : "D",
            "primitives" : [
                {
                    "attributes" : {
                        "POSITION" : 0,
                        "NORMAL" : 1
                    },
                    "indices" : 2,
                    "material" : 0
                },
                {
                    "attributes" : {
                        "POSITION" : 3,
                        "NORMAL" : 4
                    },
                    "indices" : 5,
                    "material" : 1
                },
                {
                    "attributes" : {
                        "POSITION" : 6,
                        "NORMAL" : 7
                    },
                    "indices" : 8,
                    "material" : 2
                },
                {
                    "attributes" : {
                        "POSITION" : 9,
                        "NORMAL" : 10
                    },
                    "indices" : 11,
                    "material" : 3
                },
                {
                    "attributes" : {
                        "POSITION" : 12,
                        "NORMAL" : 13
                    },
                    "indices" : 14,
                    "material" : 4
                },
                {
                    "attributes" : {
                        "POSITION" : 15,
                        "NORMAL" : 16
                    },
                    "indices" : 17,
                    "material" : 5
                }
            ]
        },
        {
            "name" : "LXC",
            "primitives" : [
                {
                    "attributes" : {
                        "POSITION" : 18,
                        "NORMAL" : 19,
                        "TEXCOORD_0" : 20
                    },
                    "indices" : 21,
                    "material" : 6
                }
            ]
        }
    ],
    "textures" : [
        {
            "sampler" : 0,
            "source" : 0
        }
    ],
    "images" : [
        {
            "bufferView" : 22,
            "mimeType" : "image/png",
            "name" : "LXC"
        }
    ],
    "accessors" : [
        {
            "bufferView" : 0,
            "componentType" : 5126,
            "count" : 2006,
            "max" : [
                3.034137487411499,
                3.1010828018188477,
                3.099992513656616
            ],
            "min" : [
                -3.03426456451416,
                -3.1010828018188477,
                -3.099992513656616
            ],
            "type" : "VEC3"
        },
        {
            "bufferView" : 1,
            "componentType" : 5126,
            "count" : 2006,
            "type" : "VEC3"
        },
        {
            "bufferView" : 2,
            "componentType" : 5123,
            "count" : 10158,
            "type" : "SCALAR"
        },
        {
            "bufferView" : 3,
            "componentType" : 5126,
            "count" : 193,
            "max" : [
                0.40545180439949036,
                0.4287022650241852,
                4.678354263305664
            ],
            "min" : [
                -0.3935061991214752,
                -0.4253983199596405,
                -4.678354263305664
            ],
            "type" : "VEC3"
        },
        {
            "bufferView" : 4,
            "componentType" : 5126,
            "count" : 193,
            "type" : "VEC3"
        },
        {
            "bufferView" : 5,
            "componentType" : 5123,
            "count" : 1053,
            "type" : "SCALAR"
        },
        {
            "bufferView" : 6,
            "componentType" : 5126,
            "count" : 1306,
            "max" : [
                2.1817643642425537,
                2.2336204051971436,
                2.217393636703491
            ],
            "min" : [
                -2.1746106147766113,
                -2.2336204051971436,
                -2.2165682315826416
            ],
            "type" : "VEC3"
        },
        {
            "bufferView" : 7,
            "componentType" : 5126,
            "count" : 1306,
            "type" : "VEC3"
        },
        {
            "bufferView" : 8,
            "componentType" : 5123,
            "count" : 6801,
            "type" : "SCALAR"
        },
        {
            "bufferView" : 9,
            "componentType" : 5126,
            "count" : 607,
            "max" : [
                5.711736679077148,
                0.359104722738266,
                1.8358283042907715
            ],
            "min" : [
                -5.715352535247803,
                -0.3635229766368866,
                -1.8343760967254639
            ],
            "type" : "VEC3"
        },
        {
            "bufferView" : 10,
            "componentType" : 5126,
            "count" : 607,
            "type" : "VEC3"
        },
        {
            "bufferView" : 11,
            "componentType" : 5123,
            "count" : 3114,
            "type" : "SCALAR"
        },
        {
            "bufferView" : 12,
            "componentType" : 5126,
            "count" : 7009,
            "max" : [
                6.749424934387207,
                6.720094203948975,
                6.995579242706299
            ],
            "min" : [
                -6.748440265655518,
                -6.721986770629883,
                -6.998065948486328
            ],
            "type" : "VEC3"
        },
        {
            "bufferView" : 13,
            "componentType" : 5126,
            "count" : 7009,
            "type" : "VEC3"
        },
        {
            "bufferView" : 14,
            "componentType" : 5123,
            "count" : 37782,
            "type" : "SCALAR"
        },
        {
            "bufferView" : 15,
            "componentType" : 5126,
            "count" : 389,
            "max" : [
                1.1417955160140991,
                4.850998878479004,
                0.8563036322593689
            ],
            "min" : [
                -1.1413999795913696,
                -4.850998878479004,
                -0.8563036322593689
            ],
            "type" : "VEC3"
        },
        {
            "bufferView" : 16,
            "componentType" : 5126,
            "count" : 389,
            "type" : "VEC3"
        },
        {
            "bufferView" : 17,
            "componentType" : 5123,
            "count" : 1998,
            "type" : "SCALAR"
        },
        {
            "bufferView" : 18,
            "componentType" : 5126,
            "count" : 4,
            "max" : [
                1.4638515710830688,
                1.8626504783014752e-09,
                1.9518022537231445
            ],
            "min" : [
                -1.4638515710830688,
                -1.8626504783014752e-09,
                -1.9518022537231445
            ],
            "type" : "VEC3"
        },
        {
            "bufferView" : 19,
            "componentType" : 5126,
            "count" : 4,
            "type" : "VEC3"
        },
        {
            "bufferView" : 20,
            "componentType" : 5126,
            "count" : 4,
            "type" : "VEC2"
        },
        {
            "bufferView" : 21,
            "componentType" : 5123,
            "count" : 6,
            "type" : "SCALAR"
        }
    ],
    "bufferViews" : [
        {
            "buffer" : 0,
            "byteLength" : 24072,
            "byteOffset" : 0
        },
        {
            "buffer" : 0,
            "byteLength" : 24072,
            "byteOffset" : 24072
        },
        {
            "buffer" : 0,
            "byteLength" : 20316,
            "byteOffset" : 48144
        },
        {
            "buffer" : 0,
            "byteLength" : 2316,
            "byteOffset" : 68460
        },
        {
            "buffer" : 0,
            "byteLength" : 2316,
            "byteOffset" : 70776
        },
        {
            "buffer" : 0,
            "byteLength" : 2106,
            "byteOffset" : 73092
        },
        {
            "buffer" : 0,
            "byteLength" : 15672,
            "byteOffset" : 75200
        },
        {
            "buffer" : 0,
            "byteLength" : 15672,
            "byteOffset" : 90872
        },
        {
            "buffer" : 0,
            "byteLength" : 13602,
            "byteOffset" : 106544
        },
        {
            "buffer" : 0,
            "byteLength" : 7284,
            "byteOffset" : 120148
        },
        {
            "buffer" : 0,
            "byteLength" : 7284,
            "byteOffset" : 127432
        },
        {
            "buffer" : 0,
            "byteLength" : 6228,
            "byteOffset" : 134716
        },
        {
            "buffer" : 0,
            "byteLength" : 84108,
            "byteOffset" : 140944
        },
        {
            "buffer" : 0,
            "byteLength" : 84108,
            "byteOffset" : 225052
        },
        {
            "buffer" : 0,
            "byteLength" : 75564,
            "byteOffset" : 309160
        },
        {
            "buffer" : 0,
            "byteLength" : 4668,
            "byteOffset" : 384724
        },
        {
            "buffer" : 0,
            "byteLength" : 4668,
            "byteOffset" : 389392
        },
        {
            "buffer" : 0,
            "byteLength" : 3996,
            "byteOffset" : 394060
        },
        {
            "buffer" : 0,
            "byteLength" : 48,
            "byteOffset" : 398056
        },
        {
            "buffer" : 0,
            "byteLength" : 48,
            "byteOffset" : 398104
        },
        {
            "buffer" : 0,
            "byteLength" : 32,
            "byteOffset" : 398152
        },
        {
            "buffer" : 0,
            "byteLength" : 12,
            "byteOffset" : 398184
        },
        {
            "buffer" : 0,
            "byteLength" : 162305,
            "byteOffset" : 398196
        }
    ],
    "samplers" : [
        {
            "magFilter" : 9729,
            "minFilter" : 9986
        }
    ],
    "buffers" : [
        {
            "byteLength" : 560504,
            "uri" : "data:application/octet-stream;base64,"
        }
    ]
}
