{
    "asset" : {
        "generator" : "Khronos glTF Blender I/O v1.2.75",
        "version" : "2.0"
    },
    "scene" : 0,
    "scenes" : [
        {
            "name" : "Scene",
            "nodes" : [
                0,
                1
            ]
        }
    ],
    "nodes" : [
        {
            "mesh" : 0,
            "name" : "E",
            "rotation" : [
                0,
                0.7071067690849304,
                0,
                0.7071067690849304
            ],
            "scale" : [
                0.20000000298023224,
                0.20000000298023224,
                0.20000000298023224
            ],
            "translation" : [
                0,
                3,
                0
            ]
        },
        {
            "mesh" : 1,
            "name" : "LXC",
            "rotation" : [
                0.017452405765652657,
                0,
                0,
                0.9998477101325989
            ],
            "scale" : [
                2,
                2,
                2
            ],
            "translation" : [
                0,
                0.5,
                0
            ]
        }
    ],
    "materials" : [
        {
            "doubleSided" : true,
            "emissiveFactor" : [
                0,
                0,
                0
            ],
            "name" : "k267dab.004",
            "pbrMetallicRoughness" : {
                "baseColorFactor" : [
                    0.15199999511241913,
                    0.492000013589859,
                    0.671999990940094,
                    1
                ],
                "metallicFactor" : 0,
                "roughnessFactor" : 0.5744284987449646
            }
        },
        {
            "doubleSided" : true,
            "emissiveFactor" : [
                0,
                0,
                0
            ],
            "name" : "kffa100.004",
            "pbrMetallicRoughness" : {
                "baseColorFactor" : [
                    1,
                    0.6330000162124634,
                    0,
                    1
                ],
                "metallicFactor" : 0,
                "roughnessFactor" : 0.5744284987449646
            }
        },
        {
            "doubleSided" : true,
            "emissiveFactor" : [
                0,
                0,
                0
            ],
            "name" : "k1ff01f.002",
            "pbrMetallicRoughness" : {
                "baseColorFactor" : [
                    0.125,
                    0.9409999847412109,
                    0.125,
                    1
                ],
                "metallicFactor" : 0,
                "roughnessFactor" : 0.5744284987449646
            }
        },
        {
            "doubleSided" : true,
            "emissiveFactor" : [
                0,
                0,
                0
            ],
            "name" : "k3050f8.004",
            "pbrMetallicRoughness" : {
                "baseColorFactor" : [
                    0.19099999964237213,
                    0.3160000145435333,
                    0.9729999899864197,
                    1
                ],
                "metallicFactor" : 0,
                "roughnessFactor" : 0.5744284987449646
            }
        },
        {
            "doubleSided" : true,
            "emissiveFactor" : [
                0,
                0,
                0
            ],
            "name" : "k909090.004",
            "pbrMetallicRoughness" : {
                "baseColorFactor" : [
                    0.5659999847412109,
                    0.5659999847412109,
                    0.5659999847412109,
                    1
                ],
                "metallicFactor" : 0,
                "roughnessFactor" : 0.5744284987449646
            }
        },
        {
            "alphaMode" : "BLEND",
            "doubleSided" : true,
            "emissiveFactor" : [
                0,
                0,
                0
            ],
            "name" : "LXC",
            "pbrMetallicRoughness" : {
                "baseColorTexture" : {
                    "index" : 0,
                    "texCoord" : 0
                },
                "metallicFactor" : 0,
                "roughnessFactor" : 0.5
            }
        }
    ],
    "meshes" : [
        {
            "name" : "E",
            "primitives" : [
                {
                    "attributes" : {
                        "POSITION" : 0,
                        "NORMAL" : 1
                    },
                    "indices" : 2,
                    "material" : 0
                },
                {
                    "attributes" : {
                        "POSITION" : 3,
                        "NORMAL" : 4
                    },
                    "indices" : 5,
                    "material" : 1
                },
                {
                    "attributes" : {
                        "POSITION" : 6,
                        "NORMAL" : 7
                    },
                    "indices" : 8,
                    "material" : 2
                },
                {
                    "attributes" : {
                        "POSITION" : 9,
                        "NORMAL" : 10
                    },
                    "indices" : 11,
                    "material" : 3
                },
                {
                    "attributes" : {
                        "POSITION" : 12,
                        "NORMAL" : 13
                    },
                    "indices" : 14,
                    "material" : 4
                }
            ]
        },
        {
            "name" : "LXC",
            "primitives" : [
                {
                    "attributes" : {
                        "POSITION" : 15,
                        "NORMAL" : 16,
                        "TEXCOORD_0" : 17
                    },
                    "indices" : 18,
                    "material" : 5
                }
            ]
        }
    ],
    "textures" : [
        {
            "sampler" : 0,
            "source" : 0
        }
    ],
    "images" : [
        {
            "bufferView" : 19,
            "mimeType" : "image/png",
            "name" : "LXC"
        }
    ],
    "accessors" : [
        {
            "bufferView" : 0,
            "componentType" : 5126,
            "count" : 1982,
            "max" : [
                3.113299608230591,
                3.0348997116088867,
                3.0998995304107666
            ],
            "min" : [
                -3.113299608230591,
                -3.0348997116088867,
                -3.0998995304107666
            ],
            "type" : "VEC3"
        },
        {
            "bufferView" : 1,
            "componentType" : 5126,
            "count" : 1982,
            "type" : "VEC3"
        },
        {
            "bufferView" : 2,
            "componentType" : 5123,
            "count" : 10068,
            "type" : "SCALAR"
        },
        {
            "bufferView" : 3,
            "componentType" : 5126,
            "count" : 1340,
            "max" : [
                2.188537359237671,
                2.1692636013031006,
                2.178396224975586
            ],
            "min" : [
                -2.191254138946533,
                -2.170485496520996,
                -2.1783556938171387
            ],
            "type" : "VEC3"
        },
        {
            "bufferView" : 4,
            "componentType" : 5126,
            "count" : 1340,
            "type" : "VEC3"
        },
        {
            "bufferView" : 5,
            "componentType" : 5123,
            "count" : 6972,
            "type" : "SCALAR"
        },
        {
            "bufferView" : 6,
            "componentType" : 5126,
            "count" : 377,
            "max" : [
                4.723639488220215,
                0.3566090166568756,
                4.702023029327393
            ],
            "min" : [
                -4.723639488220215,
                -0.35642874240875244,
                -4.698927402496338
            ],
            "type" : "VEC3"
        },
        {
            "bufferView" : 7,
            "componentType" : 5126,
            "count" : 377,
            "type" : "VEC3"
        },
        {
            "bufferView" : 8,
            "componentType" : 5123,
            "count" : 2070,
            "type" : "SCALAR"
        },
        {
            "bufferView" : 9,
            "componentType" : 5126,
            "count" : 615,
            "max" : [
                0.3090984523296356,
                5.714552402496338,
                1.8036010265350342
            ],
            "min" : [
                -0.3139803409576416,
                -5.714552402496338,
                -1.8036010265350342
            ],
            "type" : "VEC3"
        },
        {
            "bufferView" : 10,
            "componentType" : 5126,
            "count" : 615,
            "type" : "VEC3"
        },
        {
            "bufferView" : 11,
            "componentType" : 5123,
            "count" : 3174,
            "type" : "SCALAR"
        },
        {
            "bufferView" : 12,
            "componentType" : 5126,
            "count" : 5855,
            "max" : [
                2.8757998943328857,
                6.762994289398193,
                7.026181697845459
            ],
            "min" : [
                -2.876368284225464,
                -6.764886856079102,
                -7.02932596206665
            ],
            "type" : "VEC3"
        },
        {
            "bufferView" : 13,
            "componentType" : 5126,
            "count" : 5855,
            "type" : "VEC3"
        },
        {
            "bufferView" : 14,
            "componentType" : 5123,
            "count" : 31515,
            "type" : "SCALAR"
        },
        {
            "bufferView" : 15,
            "componentType" : 5126,
            "count" : 4,
            "max" : [
                1.4638515710830688,
                1.8626504783014752e-09,
                1.9518022537231445
            ],
            "min" : [
                -1.4638515710830688,
                -1.8626504783014752e-09,
                -1.9518022537231445
            ],
            "type" : "VEC3"
        },
        {
            "bufferView" : 16,
            "componentType" : 5126,
            "count" : 4,
            "type" : "VEC3"
        },
        {
            "bufferView" : 17,
            "componentType" : 5126,
            "count" : 4,
            "type" : "VEC2"
        },
        {
            "bufferView" : 18,
            "componentType" : 5123,
            "count" : 6,
            "type" : "SCALAR"
        }
    ],
    "bufferViews" : [
        {
            "buffer" : 0,
            "byteLength" : 23784,
            "byteOffset" : 0
        },
        {
            "buffer" : 0,
            "byteLength" : 23784,
            "byteOffset" : 23784
        },
        {
            "buffer" : 0,
            "byteLength" : 20136,
            "byteOffset" : 47568
        },
        {
            "buffer" : 0,
            "byteLength" : 16080,
            "byteOffset" : 67704
        },
        {
            "buffer" : 0,
            "byteLength" : 16080,
            "byteOffset" : 83784
        },
        {
            "buffer" : 0,
            "byteLength" : 13944,
            "byteOffset" : 99864
        },
        {
            "buffer" : 0,
            "byteLength" : 4524,
            "byteOffset" : 113808
        },
        {
            "buffer" : 0,
            "byteLength" : 4524,
            "byteOffset" : 118332
        },
        {
            "buffer" : 0,
            "byteLength" : 4140,
            "byteOffset" : 122856
        },
        {
            "buffer" : 0,
            "byteLength" : 7380,
            "byteOffset" : 126996
        },
        {
            "buffer" : 0,
            "byteLength" : 7380,
            "byteOffset" : 134376
        },
        {
            "buffer" : 0,
            "byteLength" : 6348,
            "byteOffset" : 141756
        },
        {
            "buffer" : 0,
            "byteLength" : 70260,
            "byteOffset" : 148104
        },
        {
            "buffer" : 0,
            "byteLength" : 70260,
            "byteOffset" : 218364
        },
        {
            "buffer" : 0,
            "byteLength" : 63030,
            "byteOffset" : 288624
        },
        {
            "buffer" : 0,
            "byteLength" : 48,
            "byteOffset" : 351656
        },
        {
            "buffer" : 0,
            "byteLength" : 48,
            "byteOffset" : 351704
        },
        {
            "buffer" : 0,
            "byteLength" : 32,
            "byteOffset" : 351752
        },
        {
            "buffer" : 0,
            "byteLength" : 12,
            "byteOffset" : 351784
        },
        {
            "buffer" : 0,
            "byteLength" : 162305,
            "byteOffset" : 351796
        }
    ],
    "samplers" : [
        {
            "magFilter" : 9729,
            "minFilter" : 9986
        }
    ],
    "buffers" : [
        {
            "byteLength" : 514104,
            "uri" : "data:application/octet-stream;base64,"
        }
    ]
}
