{
    "asset" : {
        "generator" : "Khronos glTF Blender I/O v1.2.75",
        "version" : "2.0"
    },
    "scene" : 0,
    "scenes" : [
        {
            "name" : "Scene",
            "nodes" : [
                0,
                1
            ]
        }
    ],
    "nodes" : [
        {
            "mesh" : 0,
            "name" : "F",
            "rotation" : [
                0,
                -0.7070850133895874,
                0,
                0.7071285843849182
            ],
            "scale" : [
                0.20000000298023224,
                0.20000000298023224,
                0.20000000298023224
            ],
            "translation" : [
                0,
                3,
                0
            ]
        },
        {
            "mesh" : 1,
            "name" : "LXC",
            "rotation" : [
                0.017452405765652657,
                0,
                0,
                0.9998477101325989
            ],
            "scale" : [
                2,
                2,
                2
            ],
            "translation" : [
                0,
                0.5,
                0
            ]
        }
    ],
    "materials" : [
        {
            "doubleSided" : true,
            "emissiveFactor" : [
                0,
                0,
                0
            ],
            "name" : "k267dab.005",
            "pbrMetallicRoughness" : {
                "baseColorFactor" : [
                    0.15199999511241913,
                    0.492000013589859,
                    0.671999990940094,
                    1
                ],
                "metallicFactor" : 0,
                "roughnessFactor" : 0.5744284987449646
            }
        },
        {
            "doubleSided" : true,
            "emissiveFactor" : [
                0,
                0,
                0
            ],
            "name" : "kffa100.005",
            "pbrMetallicRoughness" : {
                "baseColorFactor" : [
                    1,
                    0.6330000162124634,
                    0,
                    1
                ],
                "metallicFactor" : 0,
                "roughnessFactor" : 0.5744284987449646
            }
        },
        {
            "doubleSided" : true,
            "emissiveFactor" : [
                0,
                0,
                0
            ],
            "name" : "k1ff01f.003",
            "pbrMetallicRoughness" : {
                "baseColorFactor" : [
                    0.125,
                    0.9409999847412109,
                    0.125,
                    1
                ],
                "metallicFactor" : 0,
                "roughnessFactor" : 0.5744284987449646
            }
        },
        {
            "doubleSided" : true,
            "emissiveFactor" : [
                0,
                0,
                0
            ],
            "name" : "k3050f8.005",
            "pbrMetallicRoughness" : {
                "baseColorFactor" : [
                    0.19099999964237213,
                    0.3160000145435333,
                    0.9729999899864197,
                    1
                ],
                "metallicFactor" : 0,
                "roughnessFactor" : 0.5744284987449646
            }
        },
        {
            "doubleSided" : true,
            "emissiveFactor" : [
                0,
                0,
                0
            ],
            "name" : "k909090.005",
            "pbrMetallicRoughness" : {
                "baseColorFactor" : [
                    0.5659999847412109,
                    0.5659999847412109,
                    0.5659999847412109,
                    1
                ],
                "metallicFactor" : 0,
                "roughnessFactor" : 0.5744284987449646
            }
        },
        {
            "alphaMode" : "BLEND",
            "doubleSided" : true,
            "emissiveFactor" : [
                0,
                0,
                0
            ],
            "name" : "LXC",
            "pbrMetallicRoughness" : {
                "baseColorTexture" : {
                    "index" : 0,
                    "texCoord" : 0
                },
                "metallicFactor" : 0,
                "roughnessFactor" : 0.5
            }
        }
    ],
    "meshes" : [
        {
            "name" : "F",
            "primitives" : [
                {
                    "attributes" : {
                        "POSITION" : 0,
                        "NORMAL" : 1
                    },
                    "indices" : 2,
                    "material" : 0
                },
                {
                    "attributes" : {
                        "POSITION" : 3,
                        "NORMAL" : 4
                    },
                    "indices" : 5,
                    "material" : 1
                },
                {
                    "attributes" : {
                        "POSITION" : 6,
                        "NORMAL" : 7
                    },
                    "indices" : 8,
                    "material" : 2
                },
                {
                    "attributes" : {
                        "POSITION" : 9,
                        "NORMAL" : 10
                    },
                    "indices" : 11,
                    "material" : 3
                },
                {
                    "attributes" : {
                        "POSITION" : 12,
                        "NORMAL" : 13
                    },
                    "indices" : 14,
                    "material" : 4
                }
            ]
        },
        {
            "name" : "LXC",
            "primitives" : [
                {
                    "attributes" : {
                        "POSITION" : 15,
                        "NORMAL" : 16,
                        "TEXCOORD_0" : 17
                    },
                    "indices" : 18,
                    "material" : 5
                }
            ]
        }
    ],
    "textures" : [
        {
            "sampler" : 0,
            "source" : 0
        }
    ],
    "images" : [
        {
            "bufferView" : 19,
            "mimeType" : "image/png",
            "name" : "LXC"
        }
    ],
    "accessors" : [
        {
            "bufferView" : 0,
            "componentType" : 5126,
            "count" : 2005,
            "max" : [
                3.108858585357666,
                2.4583497047424316,
                3.101771831512451
            ],
            "min" : [
                -3.108858585357666,
                -3.6850497722625732,
                -3.101771831512451
            ],
            "type" : "VEC3"
        },
        {
            "bufferView" : 1,
            "componentType" : 5126,
            "count" : 2005,
            "type" : "VEC3"
        },
        {
            "bufferView" : 2,
            "componentType" : 5123,
            "count" : 10176,
            "type" : "SCALAR"
        },
        {
            "bufferView" : 3,
            "componentType" : 5126,
            "count" : 1318,
            "max" : [
                2.1895105838775635,
                1.5915287733078003,
                2.191136360168457
            ],
            "min" : [
                -2.185276985168457,
                -2.769320487976074,
                -2.1918091773986816
            ],
            "type" : "VEC3"
        },
        {
            "bufferView" : 4,
            "componentType" : 5126,
            "count" : 1318,
            "type" : "VEC3"
        },
        {
            "bufferView" : 5,
            "componentType" : 5123,
            "count" : 6858,
            "type" : "SCALAR"
        },
        {
            "bufferView" : 6,
            "componentType" : 5126,
            "count" : 492,
            "max" : [
                4.708065509796143,
                -0.19255152344703674,
                4.689439296722412
            ],
            "min" : [
                -4.698678970336914,
                -5.2883076667785645,
                -4.687553882598877
            ],
            "type" : "VEC3"
        },
        {
            "bufferView" : 7,
            "componentType" : 5126,
            "count" : 492,
            "type" : "VEC3"
        },
        {
            "bufferView" : 8,
            "componentType" : 5123,
            "count" : 2697,
            "type" : "SCALAR"
        },
        {
            "bufferView" : 9,
            "componentType" : 5126,
            "count" : 312,
            "max" : [
                0.30780720710754395,
                5.136857509613037,
                1.8044453859329224
            ],
            "min" : [
                -0.3139803409576416,
                3.9246084690093994,
                -1.8044453859329224
            ],
            "type" : "VEC3"
        },
        {
            "bufferView" : 10,
            "componentType" : 5126,
            "count" : 312,
            "type" : "VEC3"
        },
        {
            "bufferView" : 11,
            "componentType" : 5123,
            "count" : 1620,
            "type" : "SCALAR"
        },
        {
            "bufferView" : 12,
            "componentType" : 5126,
            "count" : 2959,
            "max" : [
                2.874483823776245,
                6.187508583068848,
                7.063461780548096
            ],
            "min" : [
                -2.873321771621704,
                2.45835018157959,
                -7.062396049499512
            ],
            "type" : "VEC3"
        },
        {
            "bufferView" : 13,
            "componentType" : 5126,
            "count" : 2959,
            "type" : "VEC3"
        },
        {
            "bufferView" : 14,
            "componentType" : 5123,
            "count" : 15921,
            "type" : "SCALAR"
        },
        {
            "bufferView" : 15,
            "componentType" : 5126,
            "count" : 4,
            "max" : [
                1.4638515710830688,
                1.8626504783014752e-09,
                1.9518022537231445
            ],
            "min" : [
                -1.4638515710830688,
                -1.8626504783014752e-09,
                -1.9518022537231445
            ],
            "type" : "VEC3"
        },
        {
            "bufferView" : 16,
            "componentType" : 5126,
            "count" : 4,
            "type" : "VEC3"
        },
        {
            "bufferView" : 17,
            "componentType" : 5126,
            "count" : 4,
            "type" : "VEC2"
        },
        {
            "bufferView" : 18,
            "componentType" : 5123,
            "count" : 6,
            "type" : "SCALAR"
        }
    ],
    "bufferViews" : [
        {
            "buffer" : 0,
            "byteLength" : 24060,
            "byteOffset" : 0
        },
        {
            "buffer" : 0,
            "byteLength" : 24060,
            "byteOffset" : 24060
        },
        {
            "buffer" : 0,
            "byteLength" : 20352,
            "byteOffset" : 48120
        },
        {
            "buffer" : 0,
            "byteLength" : 15816,
            "byteOffset" : 68472
        },
        {
            "buffer" : 0,
            "byteLength" : 15816,
            "byteOffset" : 84288
        },
        {
            "buffer" : 0,
            "byteLength" : 13716,
            "byteOffset" : 100104
        },
        {
            "buffer" : 0,
            "byteLength" : 5904,
            "byteOffset" : 113820
        },
        {
            "buffer" : 0,
            "byteLength" : 5904,
            "byteOffset" : 119724
        },
        {
            "buffer" : 0,
            "byteLength" : 5394,
            "byteOffset" : 125628
        },
        {
            "buffer" : 0,
            "byteLength" : 3744,
            "byteOffset" : 131024
        },
        {
            "buffer" : 0,
            "byteLength" : 3744,
            "byteOffset" : 134768
        },
        {
            "buffer" : 0,
            "byteLength" : 3240,
            "byteOffset" : 138512
        },
        {
            "buffer" : 0,
            "byteLength" : 35508,
            "byteOffset" : 141752
        },
        {
            "buffer" : 0,
            "byteLength" : 35508,
            "byteOffset" : 177260
        },
        {
            "buffer" : 0,
            "byteLength" : 31842,
            "byteOffset" : 212768
        },
        {
            "buffer" : 0,
            "byteLength" : 48,
            "byteOffset" : 244612
        },
        {
            "buffer" : 0,
            "byteLength" : 48,
            "byteOffset" : 244660
        },
        {
            "buffer" : 0,
            "byteLength" : 32,
            "byteOffset" : 244708
        },
        {
            "buffer" : 0,
            "byteLength" : 12,
            "byteOffset" : 244740
        },
        {
            "buffer" : 0,
            "byteLength" : 162305,
            "byteOffset" : 244752
        }
    ],
    "samplers" : [
        {
            "magFilter" : 9729,
            "minFilter" : 9986
        }
    ],
    "buffers" : [
        {
            "byteLength" : 407060,
            "uri" : "data:application/octet-stream;base64,"
        }
    ]
}
